Radley.ufo
<glyph name="dollar" format="1">
  <advance width="1072"/>
  <unicode hex="0024"/>
  <outline>
    <contour>
      <point x="439" y="-141" type="line"/>
      <point x="440" y="-197"/>
      <point x="464" y="-228"/>
      <point x="484" y="-228" type="curve" smooth="yes"/>
      <point x="506" y="-228"/>
      <point x="536" y="-205"/>
      <point x="536" y="-125" type="curve" smooth="yes"/>
      <point x="536" y="-27" type="line"/>
      <point x="747" y="-16"/>
      <point x="931" y="81"/>
      <point x="931" y="319" type="curve" smooth="yes"/>
      <point x="931" y="455"/>
      <point x="884" y="529"/>
      <point x="695" y="641" type="curve" smooth="yes"/>
      <point x="541" y="732" type="line"/>
      <point x="544" y="943"/>
      <point x="547" y="1053"/>
      <point x="550" y="1136" type="curve"/>
      <point x="657" y="1120"/>
      <point x="755" y="1066"/>
      <point x="777" y="961" type="curve" smooth="yes"/>
      <point x="784" y="928"/>
      <point x="808" y="876"/>
      <point x="834" y="876" type="curve" smooth="yes"/>
      <point x="840" y="876"/>
      <point x="849" y="878"/>
      <point x="861" y="881" type="curve"/>
      <point x="831" y="1138" type="line"/>
      <point x="751" y="1173"/>
      <point x="651" y="1196"/>
      <point x="551" y="1201" type="curve"/>
      <point x="552" y="1226"/>
      <point x="552" y="1251"/>
      <point x="552" y="1278" type="curve" smooth="yes"/>
      <point x="552" y="1400"/>
      <point x="535" y="1422"/>
      <point x="507" y="1422" type="curve" smooth="yes"/>
      <point x="467" y="1422"/>
      <point x="459" y="1385"/>
      <point x="459" y="1285" type="curve" smooth="yes"/>
      <point x="459" y="1261"/>
      <point x="459" y="1232"/>
      <point x="460" y="1200" type="curve"/>
      <point x="265" y="1187"/>
      <point x="95" y="1096"/>
      <point x="95" y="886" type="curve" smooth="yes"/>
      <point x="95" y="763"/>
      <point x="163" y="664"/>
      <point x="310" y="581" type="curve" smooth="yes"/>
      <point x="449" y="502" type="line"/>
      <point x="449" y="45" type="line"/>
      <point x="304" y="72"/>
      <point x="175" y="159"/>
      <point x="159" y="282" type="curve" smooth="yes"/>
      <point x="154" y="317"/>
      <point x="140" y="371"/>
      <point x="115" y="371" type="curve" smooth="yes"/>
      <point x="112" y="371"/>
      <point x="105" y="369"/>
      <point x="94" y="366" type="curve"/>
      <point x="73" y="80" type="line"/>
      <point x="169" y="21"/>
      <point x="304" y="-18"/>
      <point x="441" y="-26" type="curve"/>
    </contour>
    <contour>
      <point x="538" y="452" type="curve"/>
      <point x="693" y="364"/>
      <point x="757" y="318"/>
      <point x="757" y="222" type="curve" smooth="yes"/>
      <point x="757" y="95"/>
      <point x="656" y="36"/>
      <point x="536" y="36" type="curve"/>
      <point x="536" y="197"/>
      <point x="537" y="335"/>
    </contour>
    <contour>
      <point x="454" y="785" type="line"/>
      <point x="359" y="842" type="line" smooth="yes"/>
      <point x="284" y="887"/>
      <point x="252" y="936"/>
      <point x="252" y="990" type="curve" smooth="yes"/>
      <point x="252" y="1075"/>
      <point x="349" y="1130"/>
      <point x="454" y="1138" type="curve"/>
    </contour>
  </outline>
</glyph>
<glyph name="ampersand" format="1">
  <advance width="1468"/>
  <unicode hex="0026"/>
  <outline>
    <contour>
      <point x="984" y="886" type="line"/>
      <point x="983" y="875"/>
      <point x="982" y="866"/>
      <point x="982" y="858" type="curve" smooth="yes"/>
      <point x="982" y="848"/>
      <point x="983" y="840"/>
      <point x="984" y="832" type="curve"/>
      <point x="1043" y="813"/>
      <point x="1110" y="784"/>
      <point x="1110" y="741" type="curve" smooth="yes"/>
      <point x="1110" y="728"/>
      <point x="1106" y="712"/>
      <point x="1098" y="692" type="curve"/>
      <point x="1071" y="571"/>
      <point x="1026" y="457"/>
      <point x="969" y="357" type="curve"/>
      <point x="838" y="509"/>
      <point x="707" y="681"/>
      <point x="602" y="799" type="curve"/>
      <point x="788" y="911"/>
      <point x="892" y="977"/>
      <point x="892" y="1085" type="curve" smooth="yes"/>
      <point x="892" y="1253"/>
      <point x="770" y="1322"/>
      <point x="634" y="1322" type="curve" smooth="yes"/>
      <point x="461" y="1322"/>
      <point x="264" y="1209"/>
      <point x="264" y="1042" type="curve" smooth="yes"/>
      <point x="264" y="960"/>
      <point x="310" y="870"/>
      <point x="411" y="758" type="curve"/>
      <point x="185" y="610"/>
      <point x="73" y="502"/>
      <point x="73" y="319" type="curve" smooth="yes"/>
      <point x="73" y="136"/>
      <point x="225" y="-26"/>
      <point x="488" y="-26" type="curve" smooth="yes"/>
      <point x="648" y="-26"/>
      <point x="765" y="25"/>
      <point x="896" y="152" type="curve"/>
      <point x="974" y="40"/>
      <point x="1081" y="-28"/>
      <point x="1180" y="-28" type="curve" smooth="yes"/>
      <point x="1292" y="-28"/>
      <point x="1395" y="62"/>
      <point x="1446" y="275" type="curve"/>
      <point x="1387" y="318" type="line"/>
      <point x="1312" y="208"/>
      <point x="1252" y="165"/>
      <point x="1197" y="165" type="curve" smooth="yes"/>
      <point x="1135" y="165"/>
      <point x="1081" y="219"/>
      <point x="1020" y="296" type="curve"/>
      <point x="1141" y="488"/>
      <point x="1177" y="643"/>
      <point x="1261" y="776" type="curve" smooth="yes"/>
      <point x="1284" y="813"/>
      <point x="1370" y="815"/>
      <point x="1394" y="835" type="curve"/>
      <point x="1394" y="851"/>
      <point x="1394" y="868"/>
      <point x="1393" y="886" type="curve"/>
    </contour>
    <contour>
      <point x="266" y="435" type="curve" smooth="yes"/>
      <point x="266" y="531"/>
      <point x="326" y="612"/>
      <point x="457" y="702" type="curve"/>
      <point x="559" y="576"/>
      <point x="717" y="374"/>
      <point x="845" y="209" type="curve"/>
      <point x="761" y="132"/>
      <point x="697" y="102"/>
      <point x="611" y="102" type="curve" smooth="yes"/>
      <point x="408" y="102"/>
      <point x="266" y="256"/>
    </contour>
    <contour>
      <point x="427" y="1104" type="curve" smooth="yes"/>
      <point x="427" y="1183"/>
      <point x="499" y="1250"/>
      <point x="597" y="1250" type="curve" smooth="yes"/>
      <point x="685" y="1250"/>
      <point x="749" y="1151"/>
      <point x="749" y="1071" type="curve" smooth="yes"/>
      <point x="749" y="984"/>
      <point x="678" y="918"/>
      <point x="558" y="849" type="curve"/>
      <point x="475" y="951"/>
      <point x="427" y="1035"/>
    </contour>
  </outline>
</glyph>
<glyph name="quotesingle" format="1">
  <advance width="370"/>
  <unicode hex="0027"/>
  <outline>
    <contour>
      <point x="172" y="753" type="curve"/>
      <point x="228" y="752"/>
      <point x="286" y="1106"/>
      <point x="286" y="1200" type="curve" smooth="yes"/>
      <point x="286" y="1264"/>
      <point x="249" y="1302"/>
      <point x="185" y="1302" type="curve" smooth="yes"/>
      <point x="121" y="1302"/>
      <point x="83" y="1264"/>
      <point x="83" y="1200" type="curve" smooth="yes"/>
      <point x="83" y="1138"/>
      <point x="140" y="828"/>
    </contour>
  </outline>
</glyph>
<glyph name="asterisk" format="1">
  <advance width="1218"/>
  <unicode hex="002A"/>
  <outline>
    <contour>
      <point x="700" y="1221" type="curve" smooth="yes"/>
      <point x="700" y="1271"/>
      <point x="659" y="1309"/>
      <point x="609" y="1309" type="curve" smooth="yes"/>
      <point x="562" y="1309"/>
      <point x="515" y="1276"/>
      <point x="515" y="1226" type="curve" smooth="yes"/>
      <point x="515" y="1098"/>
      <point x="550" y="948"/>
      <point x="567" y="820" type="curve"/>
      <point x="503" y="853"/>
      <point x="236" y="1009"/>
      <point x="177" y="1009" type="curve" smooth="yes"/>
      <point x="125" y="1009"/>
      <point x="86" y="961"/>
      <point x="86" y="911" type="curve" smooth="yes"/>
      <point x="86" y="869"/>
      <point x="118" y="833"/>
      <point x="159" y="824" type="curve" smooth="yes"/>
      <point x="539" y="741" type="line"/>
      <point x="489" y="685"/>
      <point x="257" y="467"/>
      <point x="257" y="389" type="curve" smooth="yes"/>
      <point x="257" y="339"/>
      <point x="304" y="295"/>
      <point x="354" y="295" type="curve" smooth="yes"/>
      <point x="389" y="295"/>
      <point x="420" y="316"/>
      <point x="435" y="346" type="curve" smooth="yes"/>
      <point x="609" y="695" type="line"/>
      <point x="782" y="346" type="line" smooth="yes"/>
      <point x="797" y="316"/>
      <point x="829" y="295"/>
      <point x="863" y="295" type="curve" smooth="yes"/>
      <point x="913" y="295"/>
      <point x="960" y="339"/>
      <point x="960" y="389" type="curve" smooth="yes"/>
      <point x="960" y="467"/>
      <point x="728" y="685"/>
      <point x="678" y="741" type="curve"/>
      <point x="1058" y="824" type="line" smooth="yes"/>
      <point x="1099" y="833"/>
      <point x="1131" y="869"/>
      <point x="1131" y="911" type="curve" smooth="yes"/>
      <point x="1131" y="961"/>
      <point x="1092" y="1009"/>
      <point x="1040" y="1009" type="curve" smooth="yes"/>
      <point x="981" y="1009"/>
      <point x="714" y="853"/>
      <point x="650" y="820" type="curve"/>
      <point x="666" y="946"/>
      <point x="700" y="1095"/>
    </contour>
  </outline>
</glyph>
<glyph name="plus" format="1">
  <advance width="1099"/>
  <unicode hex="002B"/>
  <outline>
    <contour>
      <point x="107" y="618" type="curve"/>
      <point x="107" y="568"/>
      <point x="109" y="535"/>
      <point x="159" y="505" type="curve"/>
      <point x="482" y="505" type="line"/>
      <point x="482" y="315" type="line" smooth="yes"/>
      <point x="482" y="237"/>
      <point x="483" y="181"/>
      <point x="489" y="132" type="curve"/>
      <point x="507" y="130"/>
      <point x="526" y="129"/>
      <point x="548" y="129" type="curve" smooth="yes"/>
      <point x="568" y="129"/>
      <point x="588" y="130"/>
      <point x="607" y="132" type="curve"/>
      <point x="614" y="181"/>
      <point x="617" y="238"/>
      <point x="617" y="315" type="curve" smooth="yes"/>
      <point x="617" y="505" type="line"/>
      <point x="806" y="505" type="line" smooth="yes"/>
      <point x="884" y="505"/>
      <point x="941" y="506"/>
      <point x="990" y="512" type="curve"/>
      <point x="992" y="530"/>
      <point x="993" y="549"/>
      <point x="993" y="570" type="curve" smooth="yes"/>
      <point x="993" y="591"/>
      <point x="992" y="611"/>
      <point x="990" y="629" type="curve"/>
      <point x="941" y="636"/>
      <point x="883" y="639"/>
      <point x="806" y="639" type="curve" smooth="yes"/>
      <point x="617" y="639" type="line"/>
      <point x="617" y="830" type="line" smooth="yes"/>
      <point x="617" y="906"/>
      <point x="615" y="964"/>
      <point x="608" y="1012" type="curve"/>
      <point x="590" y="1015"/>
      <point x="571" y="1015"/>
      <point x="550" y="1015" type="curve" smooth="yes"/>
      <point x="529" y="1015"/>
      <point x="508" y="1014"/>
      <point x="490" y="1012" type="curve"/>
      <point x="483" y="963"/>
      <point x="482" y="906"/>
      <point x="482" y="828" type="curve" smooth="yes"/>
      <point x="482" y="639" type="line"/>
      <point x="291" y="639" type="line" smooth="yes"/>
      <point x="198" y="639"/>
      <point x="151" y="635"/>
    </contour>
  </outline>
</glyph>
<glyph name="period" format="1">
  <advance width="556"/>
  <unicode hex="002E"/>
  <outline>
    <contour>
      <point x="277" y="251" type="curve" smooth="yes"/>
      <point x="201" y="251"/>
      <point x="140" y="189"/>
      <point x="140" y="116" type="curve" smooth="yes"/>
      <point x="140" y="42"/>
      <point x="201" y="-20"/>
      <point x="277" y="-20" type="curve" smooth="yes"/>
      <point x="354" y="-20"/>
      <point x="415" y="44"/>
      <point x="415" y="116" type="curve" smooth="yes"/>
      <point x="415" y="189"/>
      <point x="354" y="251"/>
    </contour>
  </outline>
</glyph>
<glyph name="zero" format="1">
  <advance width="1156"/>
  <unicode hex="0030"/>
  <outline>
    <contour>
      <point x="593" y="858" type="curve" smooth="yes"/>
      <point x="768" y="858"/>
      <point x="868" y="657"/>
      <point x="868" y="459" type="curve" smooth="yes"/>
      <point x="868" y="264"/>
      <point x="774" y="74"/>
      <point x="561" y="74" type="curve" smooth="yes"/>
      <point x="378" y="74"/>
      <point x="283" y="264"/>
      <point x="283" y="456" type="curve" smooth="yes"/>
      <point x="283" y="655"/>
      <point x="385" y="858"/>
    </contour>
    <contour>
      <point x="580" y="-20" type="curve" smooth="yes"/>
      <point x="909" y="-20"/>
      <point x="1072" y="217"/>
      <point x="1072" y="451" type="curve" smooth="yes"/>
      <point x="1072" y="688"/>
      <point x="906" y="926"/>
      <point x="576" y="926" type="curve" smooth="yes"/>
      <point x="248" y="926"/>
      <point x="84" y="689"/>
      <point x="84" y="455" type="curve" smooth="yes"/>
      <point x="84" y="218"/>
      <point x="248" y="-20"/>
    </contour>
  </outline>
</glyph>
<glyph name="three" format="1">
  <advance width="935"/>
  <unicode hex="0033"/>
  <outline>
    <contour>
      <point x="491" y="432" type="curve"/>
      <point x="611" y="445"/>
      <point x="726" y="548"/>
      <point x="726" y="703" type="curve" smooth="yes"/>
      <point x="726" y="858"/>
      <point x="592" y="926"/>
      <point x="453" y="926" type="curve" smooth="yes"/>
      <point x="331" y="926"/>
      <point x="201" y="872"/>
      <point x="125" y="774" type="curve"/>
      <point x="122" y="758" type="line"/>
      <point x="122" y="739"/>
      <point x="130" y="720"/>
      <point x="139" y="711" type="curve"/>
      <point x="242" y="754"/>
      <point x="311" y="822"/>
      <point x="430" y="822" type="curve" smooth="yes"/>
      <point x="518" y="822"/>
      <point x="572" y="782"/>
      <point x="572" y="699" type="curve" smooth="yes"/>
      <point x="572" y="534"/>
      <point x="355" y="432"/>
      <point x="222" y="388" type="curve"/>
      <point x="267" y="336" type="line"/>
      <point x="300" y="344"/>
      <point x="333" y="349"/>
      <point x="367" y="349" type="curve" smooth="yes"/>
      <point x="535" y="349"/>
      <point x="616" y="219"/>
      <point x="616" y="86" type="curve" smooth="yes"/>
      <point x="616" y="-52"/>
      <point x="528" y="-193"/>
      <point x="359" y="-193" type="curve" smooth="yes"/>
      <point x="318" y="-193"/>
      <point x="204" y="-67"/>
      <point x="187" y="-67" type="curve" smooth="yes"/>
      <point x="141" y="-67"/>
      <point x="113" y="-113"/>
      <point x="113" y="-163" type="curve" smooth="yes"/>
      <point x="113" y="-201"/>
      <point x="188" y="-249"/>
      <point x="382" y="-249" type="curve" smooth="yes"/>
      <point x="669" y="-249"/>
      <point x="814" y="-69"/>
      <point x="814" y="103" type="curve" smooth="yes"/>
      <point x="814" y="285"/>
      <point x="705" y="432"/>
    </contour>
  </outline>
</glyph>
<glyph name="four" format="1">
  <advance width="1001"/>
  <unicode hex="0034"/>
  <outline>
    <contour>
      <point x="550" y="-124" type="line" smooth="yes"/>
      <point x="550" y="-211"/>
      <point x="371" y="-171"/>
      <point x="371" y="-223" type="curve" smooth="yes"/>
      <point x="371" y="-226"/>
      <point x="372" y="-231"/>
      <point x="375" y="-239" type="curve"/>
      <point x="913" y="-239" type="line"/>
      <point x="916" y="-234"/>
      <point x="917" y="-228"/>
      <point x="917" y="-223" type="curve" smooth="yes"/>
      <point x="917" y="-179"/>
      <point x="744" y="-213"/>
      <point x="744" y="-129" type="curve" smooth="yes"/>
      <point x="744" y="74" type="line"/>
      <point x="891" y="74" type="line" smooth="yes"/>
      <point x="899" y="74"/>
      <point x="906" y="100"/>
      <point x="906" y="127" type="curve" smooth="yes"/>
      <point x="906" y="156"/>
      <point x="899" y="178"/>
      <point x="876" y="178" type="curve" smooth="yes"/>
      <point x="743" y="178" type="line"/>
      <point x="743" y="911" type="line"/>
      <point x="637" y="911"/>
      <point x="577" y="902"/>
      <point x="539" y="894" type="curve"/>
      <point x="65" y="121" type="line"/>
      <point x="79" y="74" type="line"/>
      <point x="550" y="74" type="line"/>
    </contour>
    <contour>
      <point x="550" y="178" type="line"/>
      <point x="196" y="178" type="line"/>
      <point x="550" y="757" type="line"/>
    </contour>
  </outline>
</glyph>
<glyph name="question" format="1">
  <advance width="806"/>
  <unicode hex="003F"/>
  <outline>
    <contour>
      <point x="304" y="236" type="curve" smooth="yes"/>
      <point x="236" y="236"/>
      <point x="181" y="178"/>
      <point x="181" y="111" type="curve" smooth="yes"/>
      <point x="181" y="45"/>
      <point x="237" y="-13"/>
      <point x="304" y="-13" type="curve" smooth="yes"/>
      <point x="371" y="-13"/>
      <point x="430" y="43"/>
      <point x="430" y="111" type="curve" smooth="yes"/>
      <point x="430" y="179"/>
      <point x="372" y="236"/>
    </contour>
    <contour>
      <point x="338" y="358" type="line"/>
      <point x="338" y="397" type="line" smooth="yes"/>
      <point x="338" y="649"/>
      <point x="730" y="613"/>
      <point x="730" y="970" type="curve" smooth="yes"/>
      <point x="730" y="1161"/>
      <point x="518" y="1329"/>
      <point x="324" y="1329" type="curve" smooth="yes"/>
      <point x="219" y="1329"/>
      <point x="68" y="1294"/>
      <point x="68" y="1179" type="curve" smooth="yes"/>
      <point x="68" y="1138"/>
      <point x="100" y="1096"/>
      <point x="144" y="1096" type="curve" smooth="yes"/>
      <point x="232" y="1096"/>
      <point x="263" y="1218"/>
      <point x="352" y="1218" type="curve" smooth="yes"/>
      <point x="476" y="1218"/>
      <point x="593" y="1110"/>
      <point x="593" y="984" type="curve" smooth="yes"/>
      <point x="593" y="756"/>
      <point x="225" y="690"/>
      <point x="225" y="576" type="curve" smooth="yes"/>
      <point x="225" y="502"/>
      <point x="250" y="431"/>
      <point x="257" y="358" type="curve"/>
    </contour>
  </outline>
</glyph>
<glyph name="I" format="1">
  <advance width="807"/>
  <unicode hex="0049"/>
  <outline>
    <contour>
      <point x="403" y="1302" type="move" name="top"/>
    </contour>
    <contour>
      <point x="509" y="1081" type="line" smooth="yes"/>
      <point x="509" y="1217"/>
      <point x="639" y="1217"/>
      <point x="735" y="1250" type="curve"/>
      <point x="733" y="1302" type="line"/>
      <point x="70" y="1302" type="line"/>
      <point x="68" y="1251" type="line"/>
      <point x="191" y="1178"/>
      <point x="294" y="1284"/>
      <point x="294" y="1030" type="curve" smooth="yes"/>
      <point x="294" y="278" type="line" smooth="yes"/>
      <point x="294" y="20"/>
      <point x="219" y="119"/>
      <point x="72" y="52" type="curve"/>
      <point x="72" y="0" type="line"/>
      <point x="737" y="0" type="line"/>
      <point x="739" y="53" type="line"/>
      <point x="586" y="108"/>
      <point x="509" y="46"/>
      <point x="509" y="260" type="curve" smooth="yes"/>
    </contour>
  </outline>
</glyph>
<glyph name="K" format="1">
  <advance width="1467"/>
  <unicode hex="004B"/>
  <outline>
    <contour>
      <point x="511" y="1166" type="line" smooth="yes"/>
      <point x="511" y="1271"/>
      <point x="743" y="1227"/>
      <point x="743" y="1285" type="curve" smooth="yes"/>
      <point x="743" y="1286"/>
      <point x="742" y="1292"/>
      <point x="739" y="1302" type="curve"/>
      <point x="73" y="1302" type="line"/>
      <point x="70" y="1293"/>
      <point x="68" y="1288"/>
      <point x="68" y="1284" type="curve" smooth="yes"/>
      <point x="68" y="1230"/>
      <point x="296" y="1268"/>
      <point x="296" y="1166" type="curve" smooth="yes"/>
      <point x="296" y="130" type="line" smooth="yes"/>
      <point x="296" y="23"/>
      <point x="69" y="76"/>
      <point x="69" y="17" type="curve" smooth="yes"/>
      <point x="69" y="14"/>
      <point x="70" y="9"/>
      <point x="73" y="0" type="curve"/>
      <point x="743" y="0" type="line"/>
      <point x="746" y="10"/>
      <point x="748" y="16"/>
      <point x="748" y="19" type="curve" smooth="yes"/>
      <point x="748" y="83"/>
      <point x="511" y="9"/>
      <point x="511" y="124" type="curve" smooth="yes"/>
      <point x="511" y="660" type="line"/>
      <point x="601" y="660" type="line"/>
      <point x="960" y="134" type="line"/>
      <point x="973" y="117"/>
      <point x="977" y="106"/>
      <point x="977" y="102" type="curve" smooth="yes"/>
      <point x="977" y="33"/>
      <point x="803" y="67"/>
      <point x="803" y="17" type="curve" smooth="yes"/>
      <point x="803" y="14"/>
      <point x="804" y="11"/>
      <point x="809" y="0" type="curve"/>
      <point x="1493" y="0" type="line"/>
      <point x="1496" y="5"/>
      <point x="1497" y="11"/>
      <point x="1497" y="18" type="curve" smooth="yes"/>
      <point x="1497" y="56"/>
      <point x="1293" y="86"/>
      <point x="1253" y="130" type="curve"/>
      <point x="785" y="774" type="line"/>
      <point x="1173" y="1172" type="line"/>
      <point x="1201" y="1195"/>
      <point x="1247" y="1216"/>
      <point x="1315" y="1231" type="curve" smooth="yes"/>
      <point x="1388" y="1247"/>
      <point x="1457" y="1265"/>
      <point x="1457" y="1284" type="curve"/>
      <point x="1453" y="1302" type="line"/>
      <point x="889" y="1302" type="line"/>
      <point x="886" y="1293"/>
      <point x="884" y="1288"/>
      <point x="884" y="1284" type="curve" smooth="yes"/>
      <point x="884" y="1228"/>
      <point x="1057" y="1277"/>
      <point x="1057" y="1200" type="curve" smooth="yes"/>
      <point x="1057" y="1194"/>
      <point x="1056" y="1187"/>
      <point x="1053" y="1178" type="curve"/>
      <point x="597" y="726" type="line"/>
      <point x="511" y="726" type="line"/>
    </contour>
  </outline>
</glyph>
<glyph name="Q" format="1">
  <advance width="1592"/>
  <unicode hex="0051"/>
  <outline>
    <contour>
      <point x="346" y="729" type="curve" smooth="yes"/>
      <point x="346" y="1052"/>
      <point x="535" y="1250"/>
      <point x="770" y="1250" type="curve" smooth="yes"/>
      <point x="1060" y="1250"/>
      <point x="1258" y="953"/>
      <point x="1258" y="587" type="curve" smooth="yes"/>
      <point x="1258" y="233"/>
      <point x="1064" y="51"/>
      <point x="835" y="51" type="curve" smooth="yes"/>
      <point x="566" y="51"/>
      <point x="346" y="314"/>
    </contour>
    <contour>
      <point x="1590" y="-213" type="line"/>
      <point x="1308" y="-188"/>
      <point x="1189" y="-138"/>
      <point x="924" y="-11" type="curve"/>
      <point x="1241" y="51"/>
      <point x="1491" y="295"/>
      <point x="1491" y="651" type="curve" smooth="yes"/>
      <point x="1491" y="1063"/>
      <point x="1178" y="1327"/>
      <point x="804" y="1327" type="curve" smooth="yes"/>
      <point x="427" y="1327"/>
      <point x="112" y="1061"/>
      <point x="112" y="641" type="curve" smooth="yes"/>
      <point x="112" y="286"/>
      <point x="338" y="71"/>
      <point x="650" y="-11" type="curve"/>
      <point x="744" y="-73"/>
      <point x="973" y="-194"/>
      <point x="1078" y="-244" type="curve" smooth="yes"/>
      <point x="1180" y="-293"/>
      <point x="1261" y="-314"/>
      <point x="1398" y="-314" type="curve" smooth="yes"/>
      <point x="1473" y="-314"/>
      <point x="1551" y="-302"/>
      <point x="1602" y="-285" type="curve"/>
    </contour>
  </outline>
</glyph>
<glyph name="R" format="1">
  <advance width="1437"/>
  <unicode hex="0052"/>
  <outline>
    <contour>
      <point x="1265" y="-26" type="curve" smooth="yes"/>
      <point x="1324" y="-26"/>
      <point x="1383" y="-16"/>
      <point x="1441" y="-2" type="curve"/>
      <point x="1441" y="54" type="line"/>
      <point x="1317" y="54"/>
      <point x="1273" y="95"/>
      <point x="1219" y="153" type="curve" smooth="yes"/>
      <point x="1097" y="300"/>
      <point x="975" y="484"/>
      <point x="855" y="647" type="curve"/>
      <point x="1029" y="672"/>
      <point x="1219" y="770"/>
      <point x="1219" y="970" type="curve" smooth="yes"/>
      <point x="1219" y="1302"/>
      <point x="779" y="1302"/>
      <point x="531" y="1302" type="curve" smooth="yes"/>
      <point x="70" y="1302" type="line"/>
      <point x="68" y="1250" type="line"/>
      <point x="208" y="1188"/>
      <point x="274" y="1231"/>
      <point x="274" y="1035" type="curve" smooth="yes"/>
      <point x="274" y="277" type="line" smooth="yes"/>
      <point x="274" y="22"/>
      <point x="200" y="124"/>
      <point x="68" y="52" type="curve"/>
      <point x="70" y="0" type="line"/>
      <point x="703" y="0" type="line"/>
      <point x="705" y="52" type="line"/>
      <point x="574" y="114"/>
      <point x="489" y="36"/>
      <point x="489" y="251" type="curve" smooth="yes"/>
      <point x="489" y="636" type="line"/>
      <point x="552" y="632" type="line" smooth="yes"/>
      <point x="633" y="627"/>
      <point x="652" y="606"/>
      <point x="695" y="542" type="curve" smooth="yes"/>
      <point x="827" y="344"/>
      <point x="986" y="-26"/>
    </contour>
    <contour>
      <point x="489" y="1227" type="line"/>
      <point x="511" y="1227" type="line" smooth="yes"/>
      <point x="710" y="1227"/>
      <point x="986" y="1226"/>
      <point x="986" y="958" type="curve" smooth="yes"/>
      <point x="986" y="691"/>
      <point x="683" y="703"/>
      <point x="489" y="703" type="curve"/>
    </contour>
    <contour>
      <point x="754" y="1302" type="move" name="top"/>
    </contour>
  </outline>
</glyph>
<glyph name="S" format="1">
  <advance width="1167"/>
  <unicode hex="0053"/>
  <outline>
    <contour>
      <point x="597" y="1302" type="move" name="top"/>
    </contour>
    <contour>
      <point x="137" y="77" type="line"/>
      <point x="247" y="10"/>
      <point x="442" y="-26"/>
      <point x="578" y="-26" type="curve" smooth="yes"/>
      <point x="808" y="-26"/>
      <point x="1058" y="79"/>
      <point x="1058" y="344" type="curve" smooth="yes"/>
      <point x="1058" y="737"/>
      <point x="341" y="817"/>
      <point x="341" y="1075" type="curve" smooth="yes"/>
      <point x="341" y="1198"/>
      <point x="486" y="1250"/>
      <point x="588" y="1250" type="curve" smooth="yes"/>
      <point x="726" y="1250"/>
      <point x="851" y="1187"/>
      <point x="898" y="1051" type="curve" smooth="yes"/>
      <point x="910" y="1017"/>
      <point x="919" y="981"/>
      <point x="936" y="949" type="curve"/>
      <point x="998" y="949" type="line"/>
      <point x="985" y="1234" type="line"/>
      <point x="868" y="1294"/>
      <point x="735" y="1327"/>
      <point x="604" y="1327" type="curve" smooth="yes"/>
      <point x="394" y="1327"/>
      <point x="154" y="1237"/>
      <point x="154" y="991" type="curve" smooth="yes"/>
      <point x="154" y="617"/>
      <point x="863" y="543"/>
      <point x="863" y="268" type="curve" smooth="yes"/>
      <point x="863" y="124"/>
      <point x="716" y="58"/>
      <point x="591" y="58" type="curve" smooth="yes"/>
      <point x="431" y="58"/>
      <point x="282" y="137"/>
      <point x="234" y="297" type="curve" smooth="yes"/>
      <point x="223" y="333"/>
      <point x="215" y="370"/>
      <point x="196" y="402" type="curve"/>
      <point x="137" y="400" type="line"/>
    </contour>
  </outline>
</glyph>
<glyph name="U" format="1">
  <advance width="1639"/>
  <unicode hex="0055"/>
  <outline>
    <contour>
      <point x="825" y="1302" type="move" name="top"/>
    </contour>
    <contour>
      <point x="29" y="1302" type="line"/>
      <point x="26" y="1251" type="line"/>
      <point x="90" y="1228"/>
      <point x="215" y="1218"/>
      <point x="234" y="1139" type="curve" smooth="yes"/>
      <point x="243" y="1102"/>
      <point x="244" y="1062"/>
      <point x="244" y="1024" type="curve" smooth="yes"/>
      <point x="244" y="906"/>
      <point x="239" y="785"/>
      <point x="239" y="664" type="curve" smooth="yes"/>
      <point x="239" y="576"/>
      <point x="241" y="488"/>
      <point x="251" y="401" type="curve"/>
      <point x="283" y="101"/>
      <point x="545" y="-26"/>
      <point x="821" y="-26" type="curve" smooth="yes"/>
      <point x="1347" y="-26"/>
      <point x="1403" y="330"/>
      <point x="1403" y="714" type="curve" smooth="yes"/>
      <point x="1403" y="817"/>
      <point x="1399" y="922"/>
      <point x="1399" y="1022" type="curve" smooth="yes"/>
      <point x="1399" y="1065"/>
      <point x="1403" y="1109"/>
      <point x="1415" y="1150" type="curve" smooth="yes"/>
      <point x="1442" y="1238"/>
      <point x="1560" y="1216"/>
      <point x="1625" y="1250" type="curve"/>
      <point x="1623" y="1302" type="line"/>
      <point x="1084" y="1302" type="line"/>
      <point x="1084" y="1251" type="line"/>
      <point x="1261" y="1190"/>
      <point x="1317" y="1236"/>
      <point x="1317" y="1006" type="curve" smooth="yes"/>
      <point x="1317" y="613" type="line" smooth="yes"/>
      <point x="1317" y="322"/>
      <point x="1220" y="82"/>
      <point x="888" y="82" type="curve" smooth="yes"/>
      <point x="555" y="82"/>
      <point x="459" y="303"/>
      <point x="459" y="596" type="curve" smooth="yes"/>
      <point x="459" y="1023" type="line" smooth="yes"/>
      <point x="459" y="1251"/>
      <point x="524" y="1190"/>
      <point x="691" y="1250" type="curve"/>
      <point x="689" y="1302" type="line"/>
    </contour>
  </outline>
</glyph>
<glyph name="V" format="1">
  <advance width="1405"/>
  <unicode hex="0056"/>
  <outline>
    <contour>
      <point x="402" y="1138" type="curve" smooth="yes"/>
      <point x="402" y="1211"/>
      <point x="535" y="1225"/>
      <point x="587" y="1242" type="curve"/>
      <point x="587" y="1262"/>
      <point x="582" y="1282"/>
      <point x="581" y="1302" type="curve"/>
      <point x="-8" y="1302" type="line"/>
      <point x="-10" y="1245" type="line"/>
      <point x="96" y="1213"/>
      <point x="139" y="1197"/>
      <point x="188" y="1088" type="curve" smooth="yes"/>
      <point x="355" y="720"/>
      <point x="519" y="353"/>
      <point x="680" y="-17" type="curve"/>
      <point x="694" y="-19"/>
      <point x="707" y="-19"/>
      <point x="721" y="-19" type="curve" smooth="yes"/>
      <point x="738" y="-19"/>
      <point x="770" y="-11"/>
      <point x="770" y="-11" type="curve"/>
      <point x="770" y="-11"/>
      <point x="992" y="559"/>
      <point x="1108" y="833" type="curve" smooth="yes"/>
      <point x="1149" y="929"/>
      <point x="1197" y="1135"/>
      <point x="1295" y="1181" type="curve" smooth="yes"/>
      <point x="1338" y="1201"/>
      <point x="1385" y="1220"/>
      <point x="1424" y="1247" type="curve"/>
      <point x="1424" y="1265"/>
      <point x="1423" y="1284"/>
      <point x="1421" y="1302" type="curve"/>
      <point x="905" y="1302" type="line"/>
      <point x="903" y="1291"/>
      <point x="902" y="1280"/>
      <point x="902" y="1269" type="curve" smooth="yes"/>
      <point x="902" y="1259"/>
      <point x="903" y="1249"/>
      <point x="905" y="1240" type="curve"/>
      <point x="981" y="1216"/>
      <point x="1102" y="1217"/>
      <point x="1102" y="1114" type="curve" smooth="yes"/>
      <point x="1102" y="976"/>
      <point x="858" y="465"/>
      <point x="779" y="251" type="curve"/>
      <point x="687" y="486"/>
      <point x="402" y="1073"/>
    </contour>
  </outline>
</glyph>
<glyph name="W" format="1">
  <advance width="1933"/>
  <unicode hex="0057"/>
  <outline>
    <contour>
      <point x="375" y="1182" type="curve" smooth="yes"/>
      <point x="375" y="1270"/>
      <point x="552" y="1217"/>
      <point x="552" y="1282" type="curve" smooth="yes"/>
      <point x="552" y="1288"/>
      <point x="548" y="1297"/>
      <point x="547" y="1302" type="curve"/>
      <point x="-96" y="1302" type="line"/>
      <point x="-103" y="1280" type="line"/>
      <point x="-38" y="1216"/>
      <point x="80" y="1232"/>
      <point x="120" y="1128" type="curve" smooth="yes"/>
      <point x="243" y="807"/>
      <point x="361" y="483"/>
      <point x="482" y="161" type="curve" smooth="yes"/>
      <point x="498" y="119"/>
      <point x="529" y="-21"/>
      <point x="585" y="-21" type="curve" smooth="yes"/>
      <point x="604" y="-21"/>
      <point x="618" y="-17"/>
      <point x="627" y="1" type="curve" smooth="yes"/>
      <point x="664" y="74"/>
      <point x="686" y="171"/>
      <point x="713" y="249" type="curve" smooth="yes"/>
      <point x="972" y="994" type="line"/>
      <point x="1256" y="167" type="line" smooth="yes"/>
      <point x="1274" y="115"/>
      <point x="1287" y="49"/>
      <point x="1312" y="1" type="curve" smooth="yes"/>
      <point x="1321" y="-16"/>
      <point x="1337" y="-19"/>
      <point x="1355" y="-19" type="curve" smooth="yes"/>
      <point x="1369" y="-19"/>
      <point x="1392" y="-16"/>
      <point x="1397" y="1" type="curve" smooth="yes"/>
      <point x="1696" y="992" type="line" smooth="yes"/>
      <point x="1712" y="1047"/>
      <point x="1727" y="1103"/>
      <point x="1746" y="1157" type="curve" smooth="yes"/>
      <point x="1782" y="1259"/>
      <point x="2020" y="1237"/>
      <point x="2020" y="1291" type="curve"/>
      <point x="2017" y="1296"/>
      <point x="2007" y="1302"/>
      <point x="2002" y="1302" type="curve" smooth="yes"/>
      <point x="1485" y="1302" type="line"/>
      <point x="1479" y="1282" type="line"/>
      <point x="1485" y="1271" type="line"/>
      <point x="1541" y="1241"/>
      <point x="1686" y="1260"/>
      <point x="1686" y="1187" type="curve" smooth="yes"/>
      <point x="1686" y="1135"/>
      <point x="1457" y="456"/>
      <point x="1424" y="355" type="curve"/>
      <point x="1393" y="445"/>
      <point x="1163" y="1156"/>
      <point x="1163" y="1188" type="curve" smooth="yes"/>
      <point x="1163" y="1274"/>
      <point x="1355" y="1211"/>
      <point x="1355" y="1282" type="curve" smooth="yes"/>
      <point x="1355" y="1286"/>
      <point x="1350" y="1298"/>
      <point x="1349" y="1302" type="curve"/>
      <point x="707" y="1302" type="line"/>
      <point x="706" y="1299"/>
      <point x="700" y="1285"/>
      <point x="700" y="1282" type="curve" smooth="yes"/>
      <point x="700" y="1260"/>
      <point x="859" y="1214"/>
      <point x="885" y="1192" type="curve"/>
      <point x="902" y="1152"/>
      <point x="917" y="1111"/>
      <point x="934" y="1071" type="curve"/>
      <point x="665" y="353" type="line"/>
      <point x="603" y="524"/>
      <point x="375" y="1161"/>
    </contour>
  </outline>
</glyph>
<glyph name="asciicircum" format="1">
  <advance width="1192"/>
  <unicode hex="005E"/>
  <outline>
    <contour>
      <point x="653" y="1369" type="curve"/>
      <point x="629" y="1384"/>
      <point x="601" y="1392"/>
      <point x="573" y="1392" type="curve"/>
      <point x="541" y="1367"/>
      <point x="515" y="1335"/>
      <point x="496" y="1300" type="curve" smooth="yes"/>
      <point x="402" y="1130"/>
      <point x="269" y="911"/>
      <point x="194" y="738" type="curve"/>
      <point x="224" y="726"/>
      <point x="256" y="722"/>
      <point x="288" y="722" type="curve"/>
      <point x="402" y="870"/>
      <point x="492" y="1037"/>
      <point x="594" y="1193" type="curve"/>
      <point x="691" y="1038"/>
      <point x="779" y="862"/>
      <point x="899" y="722" type="curve"/>
      <point x="931" y="722"/>
      <point x="964" y="726"/>
      <point x="994" y="738" type="curve"/>
      <point x="906" y="939"/>
      <point x="764" y="1174"/>
    </contour>
  </outline>
</glyph>
<glyph name="l" format="1">
  <advance width="594"/>
  <unicode hex="006C"/>
  <outline>
    <contour>
      <point x="320" y="1369" type="line"/>
      <point x="42" y="1293" type="line"/>
      <point x="40" y="1258" type="line"/>
      <point x="40" y="1258"/>
      <point x="178" y="1213"/>
      <point x="205" y="1169" type="curve"/>
      <point x="205" y="855"/>
      <point x="206" y="542"/>
      <point x="206" y="228" type="curve" smooth="yes"/>
      <point x="206" y="196"/>
      <point x="203" y="167"/>
      <point x="198" y="140" type="curve" smooth="yes"/>
      <point x="186" y="74"/>
      <point x="85" y="76"/>
      <point x="46" y="50" type="curve"/>
      <point x="46" y="34"/>
      <point x="47" y="0"/>
      <point x="47" y="0" type="curve"/>
      <point x="539" y="0" type="line"/>
      <point x="539" y="0"/>
      <point x="541" y="33"/>
      <point x="541" y="50" type="curve"/>
      <point x="430" y="62"/>
      <point x="392" y="126"/>
      <point x="392" y="234" type="curve" smooth="yes"/>
      <point x="392" y="1376" type="line"/>
    </contour>
  </outline>
</glyph>
<glyph name="x" format="1">
  <advance width="1115"/>
  <unicode hex="0078"/>
  <outline>
    <contour>
      <point x="224" y="152" type="line" smooth="yes"/>
      <point x="167" y="87"/>
      <point x="84" y="67"/>
      <point x="50" y="48" type="curve"/>
      <point x="50" y="31"/>
      <point x="52" y="0"/>
      <point x="52" y="0" type="curve"/>
      <point x="435" y="0" type="line"/>
      <point x="435" y="0"/>
      <point x="436" y="15"/>
      <point x="436" y="30" type="curve" smooth="yes"/>
      <point x="436" y="38"/>
      <point x="436" y="45"/>
      <point x="435" y="51" type="curve"/>
      <point x="376" y="63"/>
      <point x="320" y="77"/>
      <point x="320" y="113" type="curve" smooth="yes"/>
      <point x="320" y="143"/>
      <point x="346" y="192"/>
      <point x="376" y="225" type="curve" smooth="yes"/>
      <point x="512" y="376" type="line"/>
      <point x="668" y="165" type="line"/>
      <point x="685" y="146"/>
      <point x="693" y="129"/>
      <point x="693" y="115" type="curve" smooth="yes"/>
      <point x="693" y="75"/>
      <point x="619" y="71"/>
      <point x="575" y="48" type="curve"/>
      <point x="575" y="32"/>
      <point x="576" y="0"/>
      <point x="576" y="0" type="curve"/>
      <point x="1053" y="0" type="line"/>
      <point x="1053" y="0"/>
      <point x="1055" y="33"/>
      <point x="1055" y="47" type="curve"/>
      <point x="982" y="75"/>
      <point x="959" y="84"/>
      <point x="900" y="159" type="curve" smooth="yes"/>
      <point x="630" y="501" type="line"/>
      <point x="836" y="753" type="line" smooth="yes"/>
      <point x="890" y="819"/>
      <point x="963" y="833"/>
      <point x="1004" y="850" type="curve"/>
      <point x="1004" y="866"/>
      <point x="1003" y="899"/>
      <point x="1003" y="899" type="curve"/>
      <point x="633" y="899" type="line"/>
      <point x="633" y="848" type="line"/>
      <point x="693" y="839"/>
      <point x="734" y="809"/>
      <point x="734" y="774" type="curve" smooth="yes"/>
      <point x="734" y="756"/>
      <point x="724" y="736"/>
      <point x="703" y="710" type="curve" smooth="yes"/>
      <point x="581" y="561" type="line"/>
      <point x="441" y="748" type="line"/>
      <point x="436" y="761"/>
      <point x="432" y="768"/>
      <point x="432" y="779" type="curve" smooth="yes"/>
      <point x="432" y="811"/>
      <point x="471" y="836"/>
      <point x="520" y="851" type="curve"/>
      <point x="520" y="866"/>
      <point x="519" y="899"/>
      <point x="519" y="899" type="curve"/>
      <point x="76" y="899" type="line"/>
      <point x="76" y="899"/>
      <point x="75" y="866"/>
      <point x="75" y="851" type="curve"/>
      <point x="105" y="836"/>
      <point x="166" y="821"/>
      <point x="204" y="772" type="curve" smooth="yes"/>
      <point x="471" y="431" type="line"/>
    </contour>
  </outline>
</glyph>
<glyph name="exclamdown" format="1">
  <advance width="567"/>
  <unicode hex="00A1"/>
  <outline>
    <contour>
      <point x="279" y="-29" type="curve" smooth="yes"/>
      <point x="352" y="-29"/>
      <point x="409" y="5"/>
      <point x="409" y="84" type="curve" smooth="yes"/>
      <point x="409" y="260"/>
      <point x="344" y="636"/>
      <point x="317" y="817" type="curve" smooth="yes"/>
      <point x="314" y="836"/>
      <point x="312" y="927"/>
      <point x="283" y="927" type="curve" smooth="yes"/>
      <point x="249" y="927"/>
      <point x="251" y="856"/>
      <point x="248" y="833" type="curve" smooth="yes"/>
      <point x="223" y="639"/>
      <point x="153" y="274"/>
      <point x="153" y="82" type="curve" smooth="yes"/>
      <point x="153" y="0"/>
      <point x="202" y="-29"/>
    </contour>
    <contour>
      <point x="162" y="1191" type="curve" smooth="yes"/>
      <point x="162" y="1124"/>
      <point x="215" y="1067"/>
      <point x="283" y="1067" type="curve" smooth="yes"/>
      <point x="351" y="1067"/>
      <point x="407" y="1123"/>
      <point x="407" y="1191" type="curve" smooth="yes"/>
      <point x="407" y="1259"/>
      <point x="350" y="1312"/>
      <point x="283" y="1312" type="curve" smooth="yes"/>
      <point x="216" y="1312"/>
      <point x="162" y="1258"/>
    </contour>
  </outline>
</glyph>
<glyph name="cent" format="1">
  <advance width="1049"/>
  <unicode hex="00A2"/>
  <outline>
    <contour>
      <point x="485" y="165" type="line"/>
      <point x="368" y="222"/>
      <point x="311" y="332"/>
      <point x="311" y="516" type="curve" smooth="yes"/>
      <point x="311" y="742"/>
      <point x="453" y="846"/>
      <point x="611" y="846" type="curve"/>
    </contour>
    <contour>
      <point x="396" y="-201" type="line"/>
      <point x="411" y="-244"/>
      <point x="435" y="-253"/>
      <point x="462" y="-253" type="curve"/>
      <point x="489" y="-209"/>
      <point x="512" y="-157"/>
      <point x="527" y="-29" type="curve"/>
      <point x="536" y="-29" type="line" smooth="yes"/>
      <point x="558" y="-29"/>
      <point x="579" y="-26"/>
      <point x="604" y="-19" type="curve"/>
      <point x="722" y="-16"/>
      <point x="872" y="50"/>
      <point x="907" y="142" type="curve" smooth="yes"/>
      <point x="913" y="158"/>
      <point x="919" y="173"/>
      <point x="923" y="189" type="curve"/>
      <point x="914" y="198"/>
      <point x="904" y="206"/>
      <point x="891" y="212" type="curve"/>
      <point x="834" y="155"/>
      <point x="758" y="122"/>
      <point x="668" y="122" type="curve" smooth="yes"/>
      <point x="632" y="122"/>
      <point x="600" y="126"/>
      <point x="563" y="139" type="curve"/>
      <point x="691" y="830" type="line"/>
      <point x="818" y="775"/>
      <point x="722" y="639"/>
      <point x="844" y="639" type="curve" smooth="yes"/>
      <point x="891" y="639"/>
      <point x="933" y="675"/>
      <point x="933" y="735" type="curve" smooth="yes"/>
      <point x="933" y="832"/>
      <point x="844" y="896"/>
      <point x="714" y="916" type="curve"/>
      <point x="743" y="1097" type="line" smooth="yes"/>
      <point x="753" y="1158"/>
      <point x="754" y="1187"/>
      <point x="755" y="1221" type="curve"/>
      <point x="737" y="1223"/>
      <point x="720" y="1223"/>
      <point x="704" y="1223" type="curve"/>
      <point x="686" y="1196"/>
      <point x="665" y="1157"/>
      <point x="657" y="1107" type="curve" smooth="yes"/>
      <point x="627" y="922" type="line"/>
      <point x="616" y="922"/>
      <point x="606" y="923"/>
      <point x="596" y="923" type="curve" smooth="yes"/>
      <point x="284" y="923"/>
      <point x="125" y="676"/>
      <point x="125" y="447" type="curve" smooth="yes"/>
      <point x="125" y="224"/>
      <point x="254" y="56"/>
      <point x="448" y="6" type="curve"/>
    </contour>
  </outline>
</glyph>
<glyph name="guillemotleft" format="1">
  <advance width="794"/>
  <unicode hex="00AB"/>
  <outline>
    <contour>
      <point x="228" y="507" type="curve"/>
      <point x="296" y="635"/>
      <point x="415" y="814"/>
      <point x="449" y="922" type="curve"/>
      <point x="440" y="934"/>
      <point x="425" y="947"/>
      <point x="396" y="947" type="curve"/>
      <point x="381" y="933"/>
      <point x="364" y="907"/>
      <point x="346" y="885" type="curve" smooth="yes"/>
      <point x="45" y="507" type="line"/>
      <point x="339" y="124" type="line" smooth="yes"/>
      <point x="362" y="94"/>
      <point x="378" y="78"/>
      <point x="400" y="63" type="curve"/>
      <point x="422" y="63"/>
      <point x="433" y="74"/>
      <point x="442" y="85" type="curve"/>
      <point x="407" y="201"/>
      <point x="294" y="377"/>
    </contour>
    <contour>
      <point x="693" y="808" type="line" smooth="yes"/>
      <point x="702" y="825"/>
      <point x="713" y="854"/>
      <point x="718" y="872" type="curve"/>
      <point x="709" y="885"/>
      <point x="693" y="898"/>
      <point x="665" y="898" type="curve"/>
      <point x="610" y="829"/>
      <point x="456" y="626"/>
      <point x="369" y="507" type="curve"/>
      <point x="613" y="172" type="line" smooth="yes"/>
      <point x="634" y="143"/>
      <point x="648" y="126"/>
      <point x="669" y="113" type="curve"/>
      <point x="690" y="113"/>
      <point x="701" y="123"/>
      <point x="710" y="134" type="curve"/>
      <point x="705" y="157"/>
      <point x="700" y="177"/>
      <point x="689" y="200" type="curve" smooth="yes"/>
      <point x="540" y="507" type="line"/>
    </contour>
  </outline>
</glyph>
<glyph name="uni00AD" format="1">
  <advance width="772"/>
  <unicode hex="00AD"/>
  <outline>
    <contour>
      <point x="586" y="391" type="line" smooth="yes"/>
      <point x="625" y="391"/>
      <point x="658" y="391"/>
      <point x="685" y="394" type="curve"/>
      <point x="689" y="412"/>
      <point x="689" y="432"/>
      <point x="689" y="458" type="curve" smooth="yes"/>
      <point x="689" y="482"/>
      <point x="689" y="504"/>
      <point x="685" y="524" type="curve"/>
      <point x="657" y="528"/>
      <point x="625" y="530"/>
      <point x="586" y="530" type="curve" smooth="yes"/>
      <point x="221" y="530" type="line" smooth="yes"/>
      <point x="183" y="530"/>
      <point x="152" y="529"/>
      <point x="124" y="525" type="curve"/>
      <point x="120" y="506"/>
      <point x="120" y="485"/>
      <point x="120" y="461" type="curve" smooth="yes"/>
      <point x="120" y="423"/>
      <point x="120" y="406"/>
      <point x="151" y="391" type="curve"/>
    </contour>
  </outline>
</glyph>
<glyph name="acute" format="1">
  <advance width="968"/>
  <unicode hex="00B4"/>
  <outline>
    <contour>
      <point x="451" y="900" type="move" name="_top"/>
    </contour>
    <contour>
      <point x="650" y="1442" type="curve" smooth="yes"/>
      <point x="665" y="1455"/>
      <point x="671" y="1471"/>
      <point x="671" y="1488" type="curve" smooth="yes"/>
      <point x="671" y="1528"/>
      <point x="632" y="1570"/>
      <point x="590" y="1570" type="curve" smooth="yes"/>
      <point x="569" y="1570"/>
      <point x="547" y="1560"/>
      <point x="529" y="1536" type="curve" smooth="yes"/>
      <point x="464" y="1449"/>
      <point x="325" y="1262"/>
      <point x="242" y="1152" type="curve" smooth="yes"/>
      <point x="235" y="1142"/>
      <point x="231" y="1131"/>
      <point x="231" y="1122" type="curve" smooth="yes"/>
      <point x="231" y="1107"/>
      <point x="239" y="1096"/>
      <point x="254" y="1096" type="curve" smooth="yes"/>
      <point x="264" y="1096"/>
      <point x="278" y="1102"/>
      <point x="294" y="1116" type="curve" smooth="yes"/>
      <point x="363" y="1177"/>
      <point x="548" y="1349"/>
    </contour>
  </outline>
</glyph>
<glyph name="cedilla" format="1">
  <advance width="691"/>
  <unicode hex="00B8"/>
  <outline>
    <contour>
      <point x="358" y="11" type="curve"/>
      <point x="275" y="11" type="line"/>
      <point x="228" y="-164" type="line"/>
      <point x="311" y="-168"/>
      <point x="380" y="-194"/>
      <point x="380" y="-268" type="curve" smooth="yes"/>
      <point x="380" y="-321"/>
      <point x="330" y="-356"/>
      <point x="271" y="-356" type="curve" smooth="yes"/>
      <point x="245" y="-356"/>
      <point x="217" y="-350"/>
      <point x="189" y="-336" type="curve"/>
      <point x="176" y="-393" type="line"/>
      <point x="227" y="-415"/>
      <point x="267" y="-425"/>
      <point x="312" y="-425" type="curve" smooth="yes"/>
      <point x="436" y="-425"/>
      <point x="543" y="-357"/>
      <point x="543" y="-246" type="curve" smooth="yes"/>
      <point x="543" y="-177"/>
      <point x="495" y="-110"/>
      <point x="382" y="-94" type="curve"/>
      <point x="375" y="-62"/>
      <point x="358" y="11"/>
    </contour>
  </outline>
</glyph>
<glyph name="onequarter" format="1">
  <advance width="1894"/>
  <unicode hex="00BC"/>
  <outline>
    <contour>
      <point x="398" y="1295" type="line"/>
      <point x="387" y="1299"/>
      <point x="376" y="1301"/>
      <point x="364" y="1301" type="curve"/>
      <point x="287" y="1264"/>
      <point x="204" y="1244"/>
      <point x="119" y="1234" type="curve"/>
      <point x="117" y="1199" type="line"/>
      <point x="188" y="1169"/>
      <point x="247" y="1197"/>
      <point x="247" y="1084" type="curve" smooth="yes"/>
      <point x="247" y="663" type="line" smooth="yes"/>
      <point x="247" y="527"/>
      <point x="194" y="586"/>
      <point x="115" y="547" type="curve"/>
      <point x="115" y="512" type="line"/>
      <point x="526" y="512" type="line"/>
      <point x="526" y="548" type="line"/>
      <point x="520" y="560"/>
      <point x="488" y="558"/>
      <point x="476" y="559" type="curve" smooth="yes"/>
      <point x="398" y="564"/>
      <point x="397" y="622"/>
      <point x="397" y="685" type="curve" smooth="yes"/>
    </contour>
    <contour>
      <point x="543" y="-77" type="curve"/>
      <point x="576" y="-31"/>
      <point x="616" y="20"/>
      <point x="640" y="71" type="curve" smooth="yes"/>
      <point x="737" y="279"/>
      <point x="829" y="488"/>
      <point x="937" y="691" type="curve" smooth="yes"/>
      <point x="1040" y="883"/>
      <point x="1154" y="1067"/>
      <point x="1265" y="1254" type="curve" smooth="yes"/>
      <point x="1343" y="1386" type="line"/>
      <point x="1316" y="1403"/>
      <point x="1285" y="1410"/>
      <point x="1253" y="1410" type="curve"/>
      <point x="1148" y="1338"/>
      <point x="1084" y="1157"/>
      <point x="1024" y="1045" type="curve" smooth="yes"/>
      <point x="515" y="91" type="line" smooth="yes"/>
      <point x="489" y="42"/>
      <point x="474" y="-27"/>
      <point x="456" y="-81" type="curve"/>
      <point x="489" y="-81" type="line" smooth="yes"/>
      <point x="507" y="-81"/>
      <point x="525" y="-81"/>
    </contour>
    <contour>
      <point x="1202" y="325" type="line"/>
      <point x="1465" y="716" type="line"/>
      <point x="1465" y="325" type="line"/>
    </contour>
    <contour>
      <point x="1745" y="251" type="line"/>
      <point x="1754" y="288"/>
      <point x="1768" y="329"/>
      <point x="1774" y="367" type="curve"/>
      <point x="1767" y="384"/>
      <point x="1755" y="386"/>
      <point x="1745" y="386" type="curve"/>
      <point x="1709" y="351"/>
      <point x="1727" y="328"/>
      <point x="1617" y="328" type="curve"/>
      <point x="1617" y="846" type="line"/>
      <point x="1570" y="846"/>
      <point x="1523" y="842"/>
      <point x="1477" y="840" type="curve"/>
      <point x="1111" y="319" type="line"/>
      <point x="1116" y="251" type="line"/>
      <point x="1467" y="251" type="line"/>
      <point x="1467" y="155" type="line" smooth="yes"/>
      <point x="1467" y="94"/>
      <point x="1383" y="98"/>
      <point x="1342" y="83" type="curve"/>
      <point x="1342" y="47" type="line"/>
      <point x="1742" y="47" type="line"/>
      <point x="1742" y="84" type="line"/>
      <point x="1703" y="96"/>
      <point x="1617" y="97"/>
      <point x="1617" y="155" type="curve" smooth="yes"/>
      <point x="1617" y="251" type="line"/>
    </contour>
  </outline>
</glyph>
<glyph name="AE" format="1">
  <advance width="1966"/>
  <unicode hex="00C6"/>
  <outline>
    <contour>
      <point x="1415" y="638" type="line"/>
      <point x="1497" y="636"/>
      <point x="1565" y="548"/>
      <point x="1631" y="464" type="curve"/>
      <point x="1650" y="464"/>
      <point x="1669" y="465"/>
      <point x="1689" y="466" type="curve"/>
      <point x="1594" y="891" type="line"/>
      <point x="1573" y="892"/>
      <point x="1556" y="893"/>
      <point x="1540" y="893" type="curve"/>
      <point x="1525" y="835"/>
      <point x="1515" y="744"/>
      <point x="1452" y="729" type="curve"/>
      <point x="1410" y="722"/>
      <point x="1362" y="719"/>
      <point x="1308" y="719" type="curve" smooth="yes"/>
      <point x="1045" y="719" type="line"/>
      <point x="1006" y="881"/>
      <point x="963" y="1046"/>
      <point x="928" y="1209" type="curve"/>
      <point x="986" y="1226"/>
      <point x="1049" y="1231"/>
      <point x="1124" y="1231" type="curve" smooth="yes"/>
      <point x="1224" y="1231" type="line" smooth="yes"/>
      <point x="1332" y="1231"/>
      <point x="1420" y="1226"/>
      <point x="1508" y="1207" type="curve"/>
      <point x="1595" y="1183"/>
      <point x="1608" y="1048"/>
      <point x="1690" y="995" type="curve"/>
      <point x="1707" y="995"/>
      <point x="1724" y="996"/>
      <point x="1741" y="997" type="curve"/>
      <point x="1685" y="1320" type="line"/>
      <point x="1653" y="1322"/>
      <point x="1628" y="1323"/>
      <point x="1603" y="1323" type="curve"/>
      <point x="1582" y="1311"/>
      <point x="1572" y="1305"/>
      <point x="1546" y="1305" type="curve" smooth="yes"/>
      <point x="808" y="1305" type="line"/>
      <point x="757" y="1324"/>
      <point x="705" y="1324"/>
      <point x="656" y="1324" type="curve"/>
      <point x="641" y="1309"/>
      <point x="631" y="1283"/>
      <point x="601" y="1224" type="curve"/>
      <point x="624" y="1207"/>
      <point x="636" y="1182"/>
      <point x="636" y="1148" type="curve" smooth="yes"/>
      <point x="636" y="1112"/>
      <point x="622" y="1064"/>
      <point x="591" y="1006" type="curve" smooth="yes"/>
      <point x="443" y="733"/>
      <point x="293" y="463"/>
      <point x="144" y="192" type="curve" smooth="yes"/>
      <point x="92" y="98"/>
      <point x="7" y="81"/>
      <point x="-46" y="52" type="curve"/>
      <point x="-47" y="43"/>
      <point x="-48" y="34"/>
      <point x="-48" y="25" type="curve" smooth="yes"/>
      <point x="-48" y="17"/>
      <point x="-47" y="9"/>
      <point x="-47" y="0" type="curve"/>
      <point x="433" y="0" type="line"/>
      <point x="435" y="25" type="line" smooth="yes"/>
      <point x="436" y="35"/>
      <point x="438" y="45"/>
      <point x="438" y="55" type="curve"/>
      <point x="351" y="83"/>
      <point x="245" y="86"/>
      <point x="245" y="178" type="curve" smooth="yes"/>
      <point x="245" y="237"/>
      <point x="289" y="297"/>
      <point x="323" y="358" type="curve" smooth="yes"/>
      <point x="461" y="609" type="line"/>
      <point x="845" y="609" type="line"/>
      <point x="912" y="241" type="line"/>
      <point x="912" y="223"/>
      <point x="917" y="208"/>
      <point x="917" y="193" type="curve" smooth="yes"/>
      <point x="917" y="102"/>
      <point x="825" y="73"/>
      <point x="736" y="52" type="curve"/>
      <point x="735" y="44"/>
      <point x="735" y="35"/>
      <point x="735" y="26" type="curve" smooth="yes"/>
      <point x="735" y="0" type="line"/>
      <point x="1692" y="0" type="line" smooth="yes"/>
      <point x="1726" y="0"/>
      <point x="1731" y="-22"/>
      <point x="1754" y="-22" type="curve" smooth="yes"/>
      <point x="1778" y="-22"/>
      <point x="1805" y="-21"/>
      <point x="1833" y="-20" type="curve"/>
      <point x="1889" y="322" type="line"/>
      <point x="1868" y="324"/>
      <point x="1851" y="325"/>
      <point x="1835" y="325" type="curve"/>
      <point x="1749" y="256"/>
      <point x="1750" y="124"/>
      <point x="1653" y="101" type="curve"/>
      <point x="1599" y="78"/>
      <point x="1545" y="73"/>
      <point x="1471" y="73" type="curve"/>
      <point x="1341" y="70" type="line"/>
      <point x="1297" y="71"/>
      <point x="1263" y="70"/>
      <point x="1233" y="78" type="curve" smooth="yes"/>
      <point x="1176" y="93"/>
      <point x="1165" y="167"/>
      <point x="1142" y="256" type="curve"/>
      <point x="1060" y="638" type="line"/>
    </contour>
    <contour>
      <point x="502" y="685" type="line"/>
      <point x="745" y="1130" type="line"/>
      <point x="831" y="685" type="line"/>
    </contour>
  </outline>
</glyph>
<glyph name="multiply" format="1">
  <advance width="1098"/>
  <unicode hex="00D7"/>
  <outline>
    <contour>
      <point x="141" y="932" type="curve"/>
      <point x="160" y="908"/>
      <point x="184" y="884"/>
      <point x="215" y="853" type="curve" smooth="yes"/>
      <point x="450" y="618" type="line"/>
      <point x="215" y="383" type="line" smooth="yes"/>
      <point x="186" y="354"/>
      <point x="162" y="328"/>
      <point x="143" y="304" type="curve"/>
      <point x="164" y="275"/>
      <point x="206" y="233"/>
      <point x="235" y="212" type="curve"/>
      <point x="259" y="231"/>
      <point x="284" y="254"/>
      <point x="315" y="285" type="curve" smooth="yes"/>
      <point x="549" y="519" type="line"/>
      <point x="784" y="284" type="line" smooth="yes"/>
      <point x="814" y="253"/>
      <point x="838" y="229"/>
      <point x="864" y="211" type="curve"/>
      <point x="893" y="232"/>
      <point x="935" y="274"/>
      <point x="956" y="303" type="curve"/>
      <point x="880" y="391"/>
      <point x="751" y="515"/>
      <point x="648" y="618" type="curve"/>
      <point x="883" y="853" type="line" smooth="yes"/>
      <point x="914" y="884"/>
      <point x="938" y="908"/>
      <point x="957" y="932" type="curve"/>
      <point x="935" y="961"/>
      <point x="893" y="1002"/>
      <point x="864" y="1023" type="curve"/>
      <point x="773" y="947"/>
      <point x="651" y="820"/>
      <point x="549" y="717" type="curve"/>
      <point x="446" y="820"/>
      <point x="324" y="947"/>
      <point x="234" y="1023" type="curve"/>
      <point x="205" y="1002"/>
      <point x="162" y="961"/>
    </contour>
  </outline>
</glyph>
<glyph name="ae" format="1">
  <advance width="1447"/>
  <unicode hex="00E6"/>
  <outline>
    <contour>
      <point x="805" y="544" type="line"/>
      <point x="807" y="725"/>
      <point x="871" y="852"/>
      <point x="1014" y="852" type="curve" smooth="yes"/>
      <point x="1127" y="852"/>
      <point x="1178" y="768"/>
      <point x="1197" y="614" type="curve"/>
      <point x="1173" y="600"/>
      <point x="1144" y="589"/>
      <point x="1114" y="583" type="curve"/>
    </contour>
    <contour>
      <point x="657" y="185" type="curve"/>
      <point x="594" y="138"/>
      <point x="486" y="92"/>
      <point x="396" y="92" type="curve" smooth="yes"/>
      <point x="321" y="92"/>
      <point x="262" y="132"/>
      <point x="262" y="205" type="curve" smooth="yes"/>
      <point x="262" y="329"/>
      <point x="325" y="362"/>
      <point x="539" y="427" type="curve" smooth="yes"/>
      <point x="562" y="434"/>
      <point x="589" y="440"/>
      <point x="617" y="446" type="curve"/>
      <point x="618" y="362"/>
      <point x="625" y="267"/>
    </contour>
    <contour>
      <point x="1382" y="554" type="line"/>
      <point x="1382" y="759"/>
      <point x="1257" y="926"/>
      <point x="1049" y="926" type="curve" smooth="yes"/>
      <point x="902" y="926"/>
      <point x="810" y="863"/>
      <point x="759" y="791" type="curve"/>
      <point x="718" y="873"/>
      <point x="635" y="924"/>
      <point x="486" y="924" type="curve" smooth="yes"/>
      <point x="369" y="924"/>
      <point x="103" y="876"/>
      <point x="103" y="711" type="curve" smooth="yes"/>
      <point x="103" y="660"/>
      <point x="142" y="578"/>
      <point x="191" y="578" type="curve" smooth="yes"/>
      <point x="241" y="578"/>
      <point x="307" y="644"/>
      <point x="307" y="669" type="curve" smooth="yes"/>
      <point x="307" y="695"/>
      <point x="272" y="723"/>
      <point x="272" y="760" type="curve" smooth="yes"/>
      <point x="272" y="828"/>
      <point x="408" y="852"/>
      <point x="448" y="852" type="curve" smooth="yes"/>
      <point x="572" y="852"/>
      <point x="613" y="750"/>
      <point x="613" y="622" type="curve" smooth="yes"/>
      <point x="613" y="501" type="line"/>
      <point x="361" y="433"/>
      <point x="69" y="421"/>
      <point x="69" y="172" type="curve" smooth="yes"/>
      <point x="69" y="47"/>
      <point x="168" y="-20"/>
      <point x="297" y="-20" type="curve" smooth="yes"/>
      <point x="425" y="-20"/>
      <point x="577" y="34"/>
      <point x="690" y="132" type="curve"/>
      <point x="771" y="37"/>
      <point x="875" y="-20"/>
      <point x="1021" y="-20" type="curve" smooth="yes"/>
      <point x="1164" y="-20"/>
      <point x="1320" y="43"/>
      <point x="1374" y="179" type="curve"/>
      <point x="1366" y="191"/>
      <point x="1356" y="200"/>
      <point x="1345" y="208" type="curve"/>
      <point x="1271" y="157"/>
      <point x="1204" y="128"/>
      <point x="1083" y="128" type="curve" smooth="yes"/>
      <point x="861" y="128"/>
      <point x="804" y="234"/>
      <point x="804" y="462" type="curve" smooth="yes"/>
      <point x="804" y="486" type="line"/>
    </contour>
  </outline>
</glyph>
<glyph name="Hbar" format="1">
  <advance width="1635"/>
  <unicode hex="0126"/>
  <outline>
    <contour>
      <point x="73" y="1176" type="line"/>
      <point x="70" y="1166"/>
      <point x="69" y="1160"/>
      <point x="69" y="1159" type="curve" smooth="yes"/>
      <point x="69" y="1100"/>
      <point x="273" y="1131"/>
      <point x="273" y="1030" type="curve" smooth="yes"/>
      <point x="273" y="130" type="line" smooth="yes"/>
      <point x="273" y="14"/>
      <point x="68" y="84"/>
      <point x="68" y="18" type="curve" smooth="yes"/>
      <point x="68" y="13"/>
      <point x="70" y="7"/>
      <point x="73" y="0" type="curve"/>
      <point x="708" y="0" type="line"/>
      <point x="711" y="9"/>
      <point x="712" y="14"/>
      <point x="712" y="17" type="curve" smooth="yes"/>
      <point x="712" y="73"/>
      <point x="488" y="21"/>
      <point x="488" y="124" type="curve" smooth="yes"/>
      <point x="488" y="576" type="line"/>
      <point x="1145" y="576" type="line"/>
      <point x="1145" y="130" type="line" smooth="yes"/>
      <point x="1145" y="14"/>
      <point x="935" y="84"/>
      <point x="935" y="18" type="curve" smooth="yes"/>
      <point x="935" y="13"/>
      <point x="937" y="7"/>
      <point x="940" y="0" type="curve"/>
      <point x="1563" y="0" type="line"/>
      <point x="1566" y="9"/>
      <point x="1567" y="14"/>
      <point x="1567" y="17" type="curve" smooth="yes"/>
      <point x="1567" y="73"/>
      <point x="1360" y="21"/>
      <point x="1360" y="124" type="curve" smooth="yes"/>
      <point x="1360" y="1030" type="line" smooth="yes"/>
      <point x="1360" y="1132"/>
      <point x="1564" y="1104"/>
      <point x="1564" y="1158" type="curve" smooth="yes"/>
      <point x="1564" y="1160"/>
      <point x="1562" y="1166"/>
      <point x="1559" y="1176" type="curve"/>
      <point x="940" y="1176" type="line"/>
      <point x="937" y="1166"/>
      <point x="936" y="1160"/>
      <point x="936" y="1159" type="curve" smooth="yes"/>
      <point x="936" y="1100"/>
      <point x="1145" y="1134"/>
      <point x="1145" y="1030" type="curve" smooth="yes"/>
      <point x="1145" y="925" type="line"/>
      <point x="488" y="925" type="line"/>
      <point x="488" y="1030" type="line" smooth="yes"/>
      <point x="488" y="1139"/>
      <point x="709" y="1099"/>
      <point x="709" y="1158" type="curve" smooth="yes"/>
      <point x="709" y="1160"/>
      <point x="707" y="1166"/>
      <point x="704" y="1176" type="curve"/>
    </contour>
    <contour>
      <point x="488" y="636" type="line"/>
      <point x="488" y="807" type="line"/>
      <point x="1145" y="807" type="line"/>
      <point x="1145" y="636" type="line"/>
    </contour>
  </outline>
</glyph>
<glyph name="hbar" format="1">
  <advance width="1190"/>
  <unicode hex="0127"/>
  <outline>
    <contour>
      <point x="1012" y="568" type="line" smooth="yes"/>
      <point x="1012" y="821"/>
      <point x="879" y="926"/>
      <point x="705" y="926" type="curve" smooth="yes"/>
      <point x="562" y="926"/>
      <point x="470" y="862"/>
      <point x="375" y="768" type="curve"/>
      <point x="375" y="1001" type="line"/>
      <point x="603" y="1001" type="line"/>
      <point x="603" y="1088" type="line"/>
      <point x="375" y="1088" type="line"/>
      <point x="375" y="1376" type="line"/>
      <point x="303" y="1369" type="line"/>
      <point x="17" y="1293" type="line"/>
      <point x="16" y="1258" type="line"/>
      <point x="16" y="1258"/>
      <point x="159" y="1210"/>
      <point x="188" y="1164" type="curve"/>
      <point x="188" y="1088" type="line"/>
      <point x="1" y="1088" type="line"/>
      <point x="1" y="1001" type="line"/>
      <point x="188" y="1001" type="line"/>
      <point x="188" y="233" type="line" smooth="yes"/>
      <point x="188" y="186"/>
      <point x="180" y="140"/>
      <point x="154" y="109" type="curve"/>
      <point x="141" y="61"/>
      <point x="36" y="73"/>
      <point x="13" y="50" type="curve"/>
      <point x="13" y="34"/>
      <point x="15" y="0"/>
      <point x="15" y="0" type="curve"/>
      <point x="548" y="0" type="line"/>
      <point x="548" y="0"/>
      <point x="549" y="34"/>
      <point x="549" y="50" type="curve"/>
      <point x="502" y="71"/>
      <point x="397" y="70"/>
      <point x="384" y="137" type="curve" smooth="yes"/>
      <point x="379" y="164"/>
      <point x="375" y="196"/>
      <point x="375" y="233" type="curve" smooth="yes"/>
      <point x="375" y="684" type="line"/>
      <point x="440" y="752"/>
      <point x="531" y="818"/>
      <point x="634" y="818" type="curve" smooth="yes"/>
      <point x="774" y="818"/>
      <point x="826" y="713"/>
      <point x="826" y="577" type="curve" smooth="yes"/>
      <point x="826" y="214" type="line" smooth="yes"/>
      <point x="826" y="187"/>
      <point x="822" y="160"/>
      <point x="817" y="136" type="curve" smooth="yes"/>
      <point x="804" y="73"/>
      <point x="710" y="69"/>
      <point x="668" y="50" type="curve"/>
      <point x="668" y="34"/>
      <point x="670" y="0"/>
      <point x="670" y="0" type="curve"/>
      <point x="1162" y="0" type="line"/>
      <point x="1162" y="0"/>
      <point x="1164" y="34"/>
      <point x="1164" y="50" type="curve"/>
      <point x="1131" y="72"/>
      <point x="1038" y="67"/>
      <point x="1024" y="133" type="curve"/>
      <point x="1016" y="158"/>
      <point x="1012" y="188"/>
      <point x="1012" y="221" type="curve" smooth="yes"/>
    </contour>
  </outline>
</glyph>
<glyph name="lslash" format="1">
  <advance width="578"/>
  <unicode hex="0142"/>
  <outline>
    <contour>
      <point x="195" y="724" type="line"/>
      <point x="141" y="709" type="line" smooth="yes"/>
      <point x="49" y="683"/>
      <point x="23" y="670"/>
      <point x="23" y="645" type="curve" smooth="yes"/>
      <point x="23" y="616"/>
      <point x="38" y="601"/>
      <point x="64" y="601" type="curve" smooth="yes"/>
      <point x="84" y="601"/>
      <point x="116" y="606"/>
      <point x="167" y="621" type="curve" smooth="yes"/>
      <point x="195" y="629" type="line"/>
      <point x="196" y="126" type="line" smooth="yes"/>
      <point x="196" y="32"/>
      <point x="12" y="74"/>
      <point x="12" y="17" type="curve" smooth="yes"/>
      <point x="12" y="14"/>
      <point x="13" y="9"/>
      <point x="16" y="0" type="curve"/>
      <point x="576" y="0" type="line"/>
      <point x="579" y="6"/>
      <point x="580" y="12"/>
      <point x="580" y="18" type="curve" smooth="yes"/>
      <point x="580" y="66"/>
      <point x="402" y="28"/>
      <point x="402" y="120" type="curve" smooth="yes"/>
      <point x="402" y="684" type="line"/>
      <point x="469" y="702" type="line" smooth="yes"/>
      <point x="568" y="728"/>
      <point x="590" y="735"/>
      <point x="590" y="767" type="curve" smooth="yes"/>
      <point x="590" y="793"/>
      <point x="573" y="808"/>
      <point x="540" y="808" type="curve" smooth="yes"/>
      <point x="519" y="808"/>
      <point x="488" y="803"/>
      <point x="445" y="791" type="curve" smooth="yes"/>
      <point x="402" y="779" type="line"/>
      <point x="402" y="1314" type="line"/>
      <point x="3" y="1244" type="line"/>
      <point x="0" y="1238"/>
      <point x="-1" y="1232"/>
      <point x="-1" y="1227" type="curve" smooth="yes"/>
      <point x="-1" y="1195"/>
      <point x="195" y="1191"/>
      <point x="195" y="1122" type="curve" smooth="yes"/>
    </contour>
  </outline>
</glyph>
<glyph name="eng" format="1">
  <advance width="1114"/>
  <unicode hex="014B"/>
  <outline>
    <contour>
      <point x="892" y="82" type="line" smooth="yes"/>
      <point x="892" y="-162"/>
      <point x="832" y="-224"/>
      <point x="792" y="-224" type="curve" smooth="yes"/>
      <point x="721" y="-224"/>
      <point x="783" y="-117"/>
      <point x="669" y="-117" type="curve" smooth="yes"/>
      <point x="626" y="-117"/>
      <point x="594" y="-134"/>
      <point x="594" y="-198" type="curve" smooth="yes"/>
      <point x="594" y="-250"/>
      <point x="675" y="-296"/>
      <point x="772" y="-296" type="curve" smooth="yes"/>
      <point x="913" y="-296"/>
      <point x="1088" y="-199"/>
      <point x="1088" y="119" type="curve" smooth="yes"/>
      <point x="1088" y="463" type="line" smooth="yes"/>
      <point x="1088" y="743"/>
      <point x="975" y="902"/>
      <point x="755" y="902" type="curve" smooth="yes"/>
      <point x="590" y="902"/>
      <point x="488" y="803"/>
      <point x="433" y="732" type="curve"/>
      <point x="413" y="880" type="line"/>
      <point x="45" y="842" type="line"/>
      <point x="42" y="834"/>
      <point x="40" y="828"/>
      <point x="40" y="824" type="curve" smooth="yes"/>
      <point x="40" y="779"/>
      <point x="227" y="817"/>
      <point x="227" y="732" type="curve" smooth="yes"/>
      <point x="227" y="126" type="line" smooth="yes"/>
      <point x="227" y="38"/>
      <point x="140" y="71"/>
      <point x="67" y="28" type="curve" smooth="yes"/>
      <point x="64" y="26"/>
      <point x="62" y="23"/>
      <point x="62" y="18" type="curve" smooth="yes"/>
      <point x="62" y="11"/>
      <point x="66" y="4"/>
      <point x="67" y="0" type="curve"/>
      <point x="617" y="0" type="line"/>
      <point x="620" y="6"/>
      <point x="621" y="12"/>
      <point x="621" y="18" type="curve" smooth="yes"/>
      <point x="621" y="66"/>
      <point x="433" y="28"/>
      <point x="433" y="120" type="curve" smooth="yes"/>
      <point x="433" y="640" type="line"/>
      <point x="487" y="720"/>
      <point x="582" y="833"/>
      <point x="695" y="833" type="curve" smooth="yes"/>
      <point x="885" y="833"/>
      <point x="892" y="671"/>
      <point x="892" y="431" type="curve" smooth="yes"/>
    </contour>
  </outline>
</glyph>
<glyph name="oe" format="1">
  <advance width="1615"/>
  <unicode hex="0153"/>
  <outline>
    <contour>
      <point x="962" y="590" type="line"/>
      <point x="975" y="744"/>
      <point x="1045" y="860"/>
      <point x="1173" y="860" type="curve" smooth="yes"/>
      <point x="1290" y="860"/>
      <point x="1354" y="770"/>
      <point x="1360" y="612" type="curve"/>
      <point x="1336" y="602"/>
      <point x="1307" y="598"/>
      <point x="1276" y="597" type="curve" smooth="yes"/>
    </contour>
    <contour>
      <point x="281" y="504" type="curve" smooth="yes"/>
      <point x="281" y="732"/>
      <point x="364" y="860"/>
      <point x="511" y="860" type="curve" smooth="yes"/>
      <point x="712" y="860"/>
      <point x="784" y="653"/>
      <point x="784" y="395" type="curve" smooth="yes"/>
      <point x="784" y="227"/>
      <point x="734" y="46"/>
      <point x="559" y="46" type="curve" smooth="yes"/>
      <point x="337" y="46"/>
      <point x="281" y="266"/>
    </contour>
    <contour>
      <point x="1551" y="529" type="line"/>
      <point x="1545" y="757"/>
      <point x="1427" y="925"/>
      <point x="1203" y="925" type="curve" smooth="yes"/>
      <point x="1062" y="925"/>
      <point x="958" y="876"/>
      <point x="874" y="755" type="curve"/>
      <point x="784" y="872"/>
      <point x="669" y="926"/>
      <point x="534" y="926" type="curve" smooth="yes"/>
      <point x="257" y="926"/>
      <point x="82" y="689"/>
      <point x="82" y="451" type="curve" smooth="yes"/>
      <point x="82" y="168"/>
      <point x="288" y="-21"/>
      <point x="543" y="-21" type="curve" smooth="yes"/>
      <point x="671" y="-21"/>
      <point x="789" y="38"/>
      <point x="874" y="154" type="curve"/>
      <point x="955" y="36"/>
      <point x="1074" y="-21"/>
      <point x="1212" y="-21" type="curve" smooth="yes"/>
      <point x="1339" y="-21"/>
      <point x="1505" y="56"/>
      <point x="1542" y="183" type="curve"/>
      <point x="1534" y="192"/>
      <point x="1523" y="200"/>
      <point x="1512" y="205" type="curve"/>
      <point x="1441" y="152"/>
      <point x="1381" y="121"/>
      <point x="1273" y="121" type="curve" smooth="yes"/>
      <point x="1071" y="121"/>
      <point x="966" y="265"/>
      <point x="961" y="529" type="curve"/>
    </contour>
  </outline>
</glyph>
<glyph name="florin" format="1">
  <advance width="952"/>
  <unicode hex="0192"/>
  <outline>
    <contour>
      <point x="265" y="863" type="line"/>
      <point x="248" y="794" type="line"/>
      <point x="434" y="794" type="line"/>
      <point x="275" y="-8" type="line" smooth="yes"/>
      <point x="257" y="-97"/>
      <point x="226" y="-257"/>
      <point x="135" y="-257" type="curve" smooth="yes"/>
      <point x="73" y="-257"/>
      <point x="77" y="-135"/>
      <point x="-4" y="-135" type="curve" smooth="yes"/>
      <point x="-51" y="-135"/>
      <point x="-88" y="-171"/>
      <point x="-88" y="-218" type="curve" smooth="yes"/>
      <point x="-88" y="-309"/>
      <point x="17" y="-330"/>
      <point x="88" y="-330" type="curve" smooth="yes"/>
      <point x="350" y="-330"/>
      <point x="444" y="-53"/>
      <point x="486" y="161" type="curve" smooth="yes"/>
      <point x="611" y="794" type="line"/>
      <point x="805" y="794" type="line"/>
      <point x="822" y="863" type="line"/>
      <point x="628" y="863" type="line"/>
      <point x="643" y="937"/>
      <point x="676" y="1294"/>
      <point x="795" y="1294" type="curve" smooth="yes"/>
      <point x="861" y="1294"/>
      <point x="837" y="1170"/>
      <point x="923" y="1170" type="curve" smooth="yes"/>
      <point x="970" y="1170"/>
      <point x="1010" y="1207"/>
      <point x="1010" y="1255" type="curve" smooth="yes"/>
      <point x="1010" y="1340"/>
      <point x="914" y="1367"/>
      <point x="845" y="1367" type="curve" smooth="yes"/>
      <point x="577" y="1367"/>
      <point x="495" y="1078"/>
      <point x="451" y="863" type="curve"/>
    </contour>
  </outline>
</glyph>
<glyph name="tilde" format="1">
  <advance width="1121"/>
  <unicode hex="02DC"/>
  <outline>
    <contour>
      <point x="545" y="900" type="move" name="_top"/>
    </contour>
    <contour>
      <point x="285" y="1131" type="line"/>
      <point x="296" y="1194"/>
      <point x="321" y="1237"/>
      <point x="364" y="1237" type="curve" smooth="yes"/>
      <point x="442" y="1237"/>
      <point x="570" y="1121"/>
      <point x="682" y="1121" type="curve" smooth="yes"/>
      <point x="780" y="1121"/>
      <point x="840" y="1204"/>
      <point x="843" y="1362" type="curve"/>
      <point x="805" y="1362" type="line"/>
      <point x="792" y="1290"/>
      <point x="762" y="1254"/>
      <point x="719" y="1254" type="curve" smooth="yes"/>
      <point x="639" y="1254"/>
      <point x="519" y="1364"/>
      <point x="407" y="1364" type="curve" smooth="yes"/>
      <point x="311" y="1364"/>
      <point x="251" y="1294"/>
      <point x="247" y="1131" type="curve"/>
    </contour>
  </outline>
</glyph>
<glyph name="emdash" format="1">
  <advance width="1649"/>
  <unicode hex="2014"/>
  <outline>
    <contour>
      <point x="40" y="503" type="curve"/>
      <point x="40" y="473"/>
      <point x="64" y="435"/>
      <point x="98" y="435" type="curve" smooth="yes"/>
      <point x="1254" y="435" type="line" smooth="yes"/>
      <point x="1372" y="435"/>
      <point x="1491" y="435"/>
      <point x="1608" y="455" type="curve"/>
      <point x="1608" y="494"/>
      <point x="1584" y="514"/>
      <point x="1552" y="525" type="curve"/>
      <point x="393" y="525" type="line" smooth="yes"/>
      <point x="275" y="525"/>
      <point x="157" y="523"/>
    </contour>
  </outline>
</glyph>
<glyph name="quoteleft" format="1">
  <advance width="544"/>
  <unicode hex="2018"/>
  <outline>
    <contour>
      <point x="382" y="1327" type="curve"/>
      <point x="209" y="1296"/>
      <point x="110" y="1142"/>
      <point x="110" y="998" type="curve" smooth="yes"/>
      <point x="110" y="877"/>
      <point x="183" y="792"/>
      <point x="291" y="792" type="curve" smooth="yes"/>
      <point x="374" y="792"/>
      <point x="430" y="848"/>
      <point x="430" y="922" type="curve" smooth="yes"/>
      <point x="430" y="984"/>
      <point x="396" y="1022"/>
      <point x="325" y="1035" type="curve" smooth="yes"/>
      <point x="284" y="1042"/>
      <point x="258" y="1061"/>
      <point x="239" y="1088" type="curve"/>
      <point x="239" y="1192"/>
      <point x="334" y="1223"/>
      <point x="418" y="1271" type="curve"/>
      <point x="412" y="1297"/>
      <point x="398" y="1314"/>
    </contour>
  </outline>
</glyph>
<glyph name="quotesinglbase" format="1">
  <advance width="572"/>
  <unicode hex="201A"/>
  <outline>
    <contour>
      <point x="195" y="-235" type="line"/>
      <point x="353" y="-207"/>
      <point x="467" y="-66"/>
      <point x="467" y="94" type="curve" smooth="yes"/>
      <point x="467" y="203"/>
      <point x="404" y="300"/>
      <point x="287" y="300" type="curve" smooth="yes"/>
      <point x="211" y="300"/>
      <point x="147" y="249"/>
      <point x="147" y="170" type="curve" smooth="yes"/>
      <point x="147" y="35"/>
      <point x="281" y="86"/>
      <point x="338" y="4" type="curve"/>
      <point x="338" y="-101"/>
      <point x="236" y="-136"/>
      <point x="159" y="-179" type="curve"/>
    </contour>
  </outline>
</glyph>
<glyph name="quotedblleft" format="1">
  <advance width="962"/>
  <unicode hex="201C"/>
  <outline>
    <contour>
      <point x="379" y="1327" type="curve"/>
      <point x="206" y="1296"/>
      <point x="107" y="1142"/>
      <point x="107" y="998" type="curve" smooth="yes"/>
      <point x="107" y="877"/>
      <point x="179" y="792"/>
      <point x="287" y="792" type="curve" smooth="yes"/>
      <point x="370" y="792"/>
      <point x="427" y="848"/>
      <point x="427" y="922" type="curve" smooth="yes"/>
      <point x="427" y="983"/>
      <point x="392" y="1022"/>
      <point x="322" y="1035" type="curve" smooth="yes"/>
      <point x="280" y="1042"/>
      <point x="255" y="1060"/>
      <point x="236" y="1088" type="curve"/>
      <point x="236" y="1192"/>
      <point x="330" y="1223"/>
      <point x="415" y="1271" type="curve"/>
      <point x="409" y="1297"/>
      <point x="395" y="1314"/>
    </contour>
    <contour>
      <point x="804" y="1327" type="curve"/>
      <point x="631" y="1296"/>
      <point x="532" y="1142"/>
      <point x="532" y="998" type="curve" smooth="yes"/>
      <point x="532" y="877"/>
      <point x="605" y="792"/>
      <point x="712" y="792" type="curve" smooth="yes"/>
      <point x="796" y="792"/>
      <point x="851" y="848"/>
      <point x="851" y="922" type="curve" smooth="yes"/>
      <point x="851" y="983"/>
      <point x="817" y="1022"/>
      <point x="747" y="1035" type="curve" smooth="yes"/>
      <point x="705" y="1042"/>
      <point x="679" y="1060"/>
      <point x="661" y="1088" type="curve"/>
      <point x="661" y="1192"/>
      <point x="755" y="1223"/>
      <point x="840" y="1271" type="curve"/>
      <point x="834" y="1297"/>
      <point x="820" y="1314"/>
    </contour>
  </outline>
</glyph>
<glyph name="quotedblright" format="1">
  <advance width="968"/>
  <unicode hex="201D"/>
  <outline>
    <contour>
      <point x="162" y="793" type="curve"/>
      <point x="334" y="825"/>
      <point x="434" y="978"/>
      <point x="434" y="1123" type="curve" smooth="yes"/>
      <point x="434" y="1244"/>
      <point x="361" y="1328"/>
      <point x="253" y="1328" type="curve" smooth="yes"/>
      <point x="170" y="1328"/>
      <point x="114" y="1271"/>
      <point x="114" y="1199" type="curve" smooth="yes"/>
      <point x="114" y="1137"/>
      <point x="148" y="1097"/>
      <point x="218" y="1085" type="curve" smooth="yes"/>
      <point x="261" y="1078"/>
      <point x="286" y="1060"/>
      <point x="305" y="1033" type="curve"/>
      <point x="305" y="928"/>
      <point x="210" y="898"/>
      <point x="125" y="850" type="curve"/>
      <point x="131" y="824"/>
      <point x="146" y="807"/>
    </contour>
    <contour>
      <point x="593" y="793" type="curve"/>
      <point x="765" y="825"/>
      <point x="865" y="978"/>
      <point x="865" y="1123" type="curve" smooth="yes"/>
      <point x="865" y="1244"/>
      <point x="792" y="1328"/>
      <point x="685" y="1328" type="curve" smooth="yes"/>
      <point x="601" y="1328"/>
      <point x="546" y="1271"/>
      <point x="546" y="1199" type="curve" smooth="yes"/>
      <point x="546" y="1137"/>
      <point x="580" y="1097"/>
      <point x="650" y="1085" type="curve" smooth="yes"/>
      <point x="692" y="1078"/>
      <point x="717" y="1060"/>
      <point x="736" y="1033" type="curve"/>
      <point x="736" y="928"/>
      <point x="641" y="898"/>
      <point x="557" y="850" type="curve"/>
      <point x="563" y="824"/>
      <point x="577" y="807"/>
    </contour>
  </outline>
</glyph>
<glyph name="dagger" format="1">
  <advance width="1051"/>
  <unicode hex="2020"/>
  <outline>
    <contour>
      <point x="424" y="1312" type="line" smooth="yes"/>
      <point x="402" y="1312"/>
      <point x="372" y="1312"/>
      <point x="372" y="1290" type="curve" smooth="yes"/>
      <point x="372" y="1281"/>
      <point x="411" y="1259"/>
      <point x="418" y="1207" type="curve" smooth="yes"/>
      <point x="468" y="801" type="line"/>
      <point x="151" y="846" type="line" smooth="yes"/>
      <point x="119" y="850"/>
      <point x="144" y="896"/>
      <point x="113" y="896" type="curve" smooth="yes"/>
      <point x="71" y="896"/>
      <point x="63" y="837"/>
      <point x="63" y="783" type="curve" smooth="yes"/>
      <point x="63" y="746"/>
      <point x="67" y="711"/>
      <point x="67" y="700" type="curve" smooth="yes"/>
      <point x="67" y="670"/>
      <point x="71" y="617"/>
      <point x="112" y="617" type="curve" smooth="yes"/>
      <point x="146" y="617"/>
      <point x="120" y="664"/>
      <point x="151" y="669" type="curve" smooth="yes"/>
      <point x="468" y="714" type="line"/>
      <point x="412" y="-118" type="line" smooth="yes"/>
      <point x="408" y="-172"/>
      <point x="370" y="-190"/>
      <point x="370" y="-202" type="curve" smooth="yes"/>
      <point x="370" y="-221"/>
      <point x="410" y="-225"/>
      <point x="420" y="-225" type="curve" smooth="yes"/>
      <point x="625" y="-225" type="line" smooth="yes"/>
      <point x="635" y="-225"/>
      <point x="675" y="-221"/>
      <point x="675" y="-202" type="curve" smooth="yes"/>
      <point x="675" y="-190"/>
      <point x="637" y="-172"/>
      <point x="633" y="-118" type="curve" smooth="yes"/>
      <point x="576" y="714" type="line"/>
      <point x="898" y="670" type="line" smooth="yes"/>
      <point x="930" y="666"/>
      <point x="906" y="618"/>
      <point x="939" y="618" type="curve" smooth="yes"/>
      <point x="979" y="618"/>
      <point x="987" y="680"/>
      <point x="987" y="735" type="curve" smooth="yes"/>
      <point x="987" y="802"/>
      <point x="995" y="896"/>
      <point x="938" y="896" type="curve" smooth="yes"/>
      <point x="906" y="896"/>
      <point x="932" y="850"/>
      <point x="899" y="846" type="curve" smooth="yes"/>
      <point x="576" y="801" type="line"/>
      <point x="626" y="1207" type="line" smooth="yes"/>
      <point x="632" y="1259"/>
      <point x="672" y="1281"/>
      <point x="672" y="1290" type="curve" smooth="yes"/>
      <point x="672" y="1312"/>
      <point x="642" y="1312"/>
      <point x="620" y="1312" type="curve" smooth="yes"/>
    </contour>
  </outline>
</glyph>
<glyph name="uniFB03" format="1">
  <advance width="1804"/>
  <unicode hex="FB03"/>
  <outline>
    <contour>
      <point x="1365" y="1104" type="curve" smooth="yes"/>
      <point x="1365" y="1036"/>
      <point x="1418" y="983"/>
      <point x="1486" y="983" type="curve" smooth="yes"/>
      <point x="1557" y="983"/>
      <point x="1610" y="1037"/>
      <point x="1610" y="1109" type="curve" smooth="yes"/>
      <point x="1610" y="1278"/>
      <point x="1320" y="1297"/>
      <point x="1201" y="1297" type="curve" smooth="yes"/>
      <point x="1090" y="1297"/>
      <point x="977" y="1275"/>
      <point x="897" y="1212" type="curve"/>
      <point x="851" y="1274"/>
      <point x="714" y="1297"/>
      <point x="606" y="1297" type="curve" smooth="yes"/>
      <point x="451" y="1297"/>
      <point x="205" y="1225"/>
      <point x="205" y="965" type="curve" smooth="yes"/>
      <point x="205" y="868" type="line"/>
      <point x="62" y="868" type="line"/>
      <point x="62" y="809" type="line"/>
      <point x="205" y="809" type="line"/>
      <point x="205" y="110" type="line" smooth="yes"/>
      <point x="205" y="27"/>
      <point x="45" y="66"/>
      <point x="45" y="17" type="curve" smooth="yes"/>
      <point x="45" y="16"/>
      <point x="46" y="10"/>
      <point x="49" y="0" type="curve"/>
      <point x="585" y="0" type="line"/>
      <point x="588" y="10"/>
      <point x="589" y="16"/>
      <point x="589" y="17" type="curve" smooth="yes"/>
      <point x="589" y="66"/>
      <point x="411" y="27"/>
      <point x="411" y="110" type="curve" smooth="yes"/>
      <point x="411" y="809" type="line"/>
      <point x="790" y="809" type="line"/>
      <point x="790" y="110" type="line" smooth="yes"/>
      <point x="790" y="27"/>
      <point x="630" y="66"/>
      <point x="630" y="17" type="curve" smooth="yes"/>
      <point x="630" y="16"/>
      <point x="631" y="10"/>
      <point x="634" y="0" type="curve"/>
      <point x="1170" y="0" type="line"/>
      <point x="1173" y="10"/>
      <point x="1174" y="16"/>
      <point x="1174" y="17" type="curve" smooth="yes"/>
      <point x="1174" y="66"/>
      <point x="996" y="27"/>
      <point x="996" y="110" type="curve" smooth="yes"/>
      <point x="996" y="809" type="line"/>
      <point x="1404" y="809" type="line"/>
      <point x="1404" y="126" type="line" smooth="yes"/>
      <point x="1404" y="32"/>
      <point x="1219" y="74"/>
      <point x="1219" y="17" type="curve" smooth="yes"/>
      <point x="1219" y="14"/>
      <point x="1220" y="9"/>
      <point x="1223" y="0" type="curve"/>
      <point x="1784" y="0" type="line"/>
      <point x="1787" y="6"/>
      <point x="1788" y="12"/>
      <point x="1788" y="18" type="curve" smooth="yes"/>
      <point x="1788" y="66"/>
      <point x="1610" y="28"/>
      <point x="1610" y="120" type="curve" smooth="yes"/>
      <point x="1610" y="868" type="line"/>
      <point x="996" y="868" type="line"/>
      <point x="996" y="947" type="line" smooth="yes"/>
      <point x="996" y="1223"/>
      <point x="1113" y="1256"/>
      <point x="1212" y="1256" type="curve" smooth="yes"/>
      <point x="1352" y="1256"/>
      <point x="1376" y="1195"/>
      <point x="1379" y="1162" type="curve"/>
      <point x="1371" y="1147"/>
      <point x="1365" y="1131"/>
    </contour>
    <contour>
      <point x="790" y="868" type="line"/>
      <point x="411" y="868" type="line"/>
      <point x="411" y="947" type="line" smooth="yes"/>
      <point x="411" y="1223"/>
      <point x="545" y="1256"/>
      <point x="617" y="1256" type="curve" smooth="yes"/>
      <point x="664" y="1256"/>
      <point x="741" y="1246"/>
      <point x="741" y="1217" type="curve" smooth="yes"/>
      <point x="741" y="1198"/>
      <point x="727" y="1177"/>
      <point x="727" y="1150" type="curve" smooth="yes"/>
      <point x="727" y="1107"/>
      <point x="752" y="1073"/>
      <point x="803" y="1068" type="curve"/>
      <point x="794" y="1037"/>
      <point x="790" y="1004"/>
      <point x="790" y="965" type="curve" smooth="yes"/>
    </contour>
  </outline>
</glyph>
<glyph name="fi" format="1">
  <advance width="1257"/>
  <outline>
    <contour>
      <point x="876" y="181" type="line" smooth="yes"/>
      <point x="876" y="83"/>
      <point x="757" y="74"/>
      <point x="712" y="50" type="curve"/>
      <point x="712" y="34"/>
      <point x="712" y="18"/>
      <point x="714" y="0" type="curve"/>
      <point x="1210" y="0" type="line"/>
      <point x="1211" y="17"/>
      <point x="1211" y="33"/>
      <point x="1211" y="50" type="curve"/>
      <point x="1183" y="71"/>
      <point x="1084" y="68"/>
      <point x="1072" y="135" type="curve"/>
      <point x="1065" y="159"/>
      <point x="1062" y="188"/>
      <point x="1062" y="220" type="curve" smooth="yes"/>
      <point x="1062" y="905" type="line"/>
      <point x="1001" y="899" type="line"/>
      <point x="397" y="899" type="line"/>
      <point x="397" y="1021" type="line" smooth="yes"/>
      <point x="397" y="1249"/>
      <point x="465" y="1302"/>
      <point x="614" y="1302" type="curve" smooth="yes"/>
      <point x="871" y="1302"/>
      <point x="827" y="1128"/>
      <point x="955" y="1124" type="curve" smooth="yes"/>
      <point x="1042" y="1121"/>
      <point x="1069" y="1181"/>
      <point x="1069" y="1222" type="curve" smooth="yes"/>
      <point x="1069" y="1354"/>
      <point x="860" y="1375"/>
      <point x="657" y="1375" type="curve" smooth="yes"/>
      <point x="377" y="1375"/>
      <point x="212" y="1231"/>
      <point x="207" y="971" type="curve" smooth="yes"/>
      <point x="206" y="901"/>
      <point x="186" y="899"/>
      <point x="122" y="899" type="curve" smooth="yes"/>
      <point x="53" y="899" type="line"/>
      <point x="53" y="818" type="line"/>
      <point x="211" y="818" type="line"/>
      <point x="211" y="215" type="line" smooth="yes"/>
      <point x="211" y="175"/>
      <point x="205" y="141"/>
      <point x="190" y="113" type="curve"/>
      <point x="175" y="62"/>
      <point x="83" y="71"/>
      <point x="46" y="50" type="curve"/>
      <point x="46" y="35"/>
      <point x="47" y="19"/>
      <point x="48" y="0" type="curve"/>
      <point x="594" y="0" type="line"/>
      <point x="595" y="19"/>
      <point x="595" y="35"/>
      <point x="595" y="50" type="curve"/>
      <point x="543" y="71"/>
      <point x="436" y="61"/>
      <point x="419" y="112" type="curve"/>
      <point x="401" y="151"/>
      <point x="397" y="198"/>
      <point x="397" y="259" type="curve" smooth="yes"/>
      <point x="397" y="818" type="line"/>
      <point x="864" y="818" type="line"/>
      <point x="864" y="818"/>
      <point x="876" y="772"/>
      <point x="876" y="713" type="curve" smooth="yes"/>
    </contour>
  </outline>
</glyph>
<glyph name="mu" format="1">
  <advance width="1325"/>
  <outline>
    <contour>
      <point x="340" y="159" type="curve"/>
      <point x="388" y="60"/>
      <point x="454" y="-17"/>
      <point x="575" y="-17" type="curve" smooth="yes"/>
      <point x="698" y="-17"/>
      <point x="804" y="44"/>
      <point x="883" y="136" type="curve"/>
      <point x="903" y="-18" type="line"/>
      <point x="1257" y="32" type="line"/>
      <point x="1259" y="37"/>
      <point x="1262" y="45"/>
      <point x="1262" y="50" type="curve" smooth="yes"/>
      <point x="1262" y="93"/>
      <point x="1086" y="58"/>
      <point x="1086" y="142" type="curve" smooth="yes"/>
      <point x="1086" y="880" type="line"/>
      <point x="962" y="871"/>
      <point x="833" y="851"/>
      <point x="709" y="849" type="curve"/>
      <point x="707" y="844"/>
      <point x="706" y="839"/>
      <point x="706" y="834" type="curve" smooth="yes"/>
      <point x="706" y="781"/>
      <point x="880" y="810"/>
      <point x="880" y="724" type="curve" smooth="yes"/>
      <point x="880" y="208" type="line"/>
      <point x="819" y="124"/>
      <point x="720" y="66"/>
      <point x="615" y="66" type="curve" smooth="yes"/>
      <point x="461" y="66"/>
      <point x="454" y="279"/>
      <point x="454" y="388" type="curve" smooth="yes"/>
      <point x="454" y="880" type="line"/>
      <point x="329" y="871"/>
      <point x="205" y="856"/>
      <point x="80" y="849" type="curve"/>
      <point x="79" y="844"/>
      <point x="77" y="838"/>
      <point x="77" y="832" type="curve" smooth="yes"/>
      <point x="77" y="785"/>
      <point x="248" y="811"/>
      <point x="248" y="721" type="curve" smooth="yes"/>
      <point x="248" y="-135" type="line" smooth="yes"/>
      <point x="248" y="-212"/>
      <point x="248" y="-363"/>
      <point x="357" y="-363" type="curve" smooth="yes"/>
      <point x="415" y="-363"/>
      <point x="420" y="-309"/>
      <point x="420" y="-262" type="curve" smooth="yes"/>
      <point x="420" y="-123"/>
      <point x="369" y="26"/>
    </contour>
  </outline>
</glyph>
